<?xml version="1.0" encoding="utf-8"?>
<!-- Generator: Adobe Illustrator 27.5.0, SVG Export Plug-In . SVG Version: 6.00 Build 0)  -->
<svg version="1.1" xmlns="http://www.w3.org/2000/svg" xmlns:xlink="http://www.w3.org/1999/xlink" x="0px" y="0px"
	 viewBox="0 0 750 500" style="enable-background:new 0 0 750 500;" xml:space="preserve">
<g id="BACKGROUND">
</g>
<g id="OBJECTS">
	<g>
		<ellipse style="opacity:0.1;fill:#211B23;" cx="630.212" cy="449.85" rx="83.807" ry="9.763"/>
		<g>
			<g>
				<g>
					
						<ellipse transform="matrix(0.2422 -0.9702 0.9702 0.2422 376.753 658.4752)" style="fill:#765E69;" cx="609.927" cy="88.044" rx="11.561" ry="8.586"/>
				</g>
				<g>
					<g>
						<path style="fill:#FFAC9D;" d="M608.525,130.19l14.988-0.639l1.404-21.367l22.48-7.745l-2.169,33.505
							C645.229,133.944,633.412,150.657,608.525,130.19z"/>
						<path style="fill:#EF9F95;" d="M646.087,120.682l1.31-20.244l-22.48,7.745l-1.236,18.808
							C631.395,125.879,638.944,123.944,646.087,120.682z"/>
					</g>
					<g>
						<path style="fill:#FFAC9D;" d="M644.379,112.066c0,0-6.604,11.854-24.585,8.308c-12.662-2.497-13.243-20.476-11.07-38.208
							c3.384-27.609,12.433-28.548,25.913-26.193C665.169,61.307,644.379,112.066,644.379,112.066z"/>
						<path style="fill:#352C38;" d="M656.39,62.481c-4.748,4.049-6.804-2.411-11.406,1.806
							c-5.027,18.097,1.463,21.955,1.463,21.955l-0.397,7.667l2.889,0.383l-3.144,18.112c0,0,10.045-6.038,12.612-29.428
							C659.971,68.724,658.659,63.39,656.39,62.481z"/>
						<path style="fill:#352C38;" d="M645.795,65.796c0,0-3.88,8.489-19.039,7.276l8.731-4.608c0,0-10.065,4.729-26.8,2.668
							c0,0,0.121-14.188,13.703-19.767c0,0-7.519,0.97-11.884,7.155c0,0,4.366-11.884,24.011-8.974
							c19.645,2.91,17.584,16.129,17.584,16.129L645.795,65.796z"/>
					</g>
				</g>
				<g>
					<path style="fill:#765E69;" d="M644.81,87.982c-1.546,6.193,1.355,12.251,6.481,13.531s10.534-2.703,12.081-8.896
						s-1.355-12.251-6.481-13.531S646.356,81.788,644.81,87.982z"/>
					<path style="fill:#826A76;" d="M648.522,88.909c-1.546,6.193,0.524,12.044,4.625,13.067c4.101,1.024,8.678-3.167,10.224-9.36
						s-0.524-12.044-4.625-13.067C654.646,78.525,650.068,82.715,648.522,88.909z"/>
					<path style="fill:#765E69;" d="M660.97,86.494c0.208-0.715,4.914-23.585-6.885-32.926s-20.713-3.893-20.713-3.893
						s13.903,0.914,17.254,9.936c3.351,9.022,3.523,24.924,2.331,28.719C651.767,92.126,657.565,98.178,660.97,86.494z"/>
				</g>
				<g>
					<g>
						<path style="fill:#D38B85;" d="M622.026,99.388c-1.918-0.571-3.742-1.327-5.552-2.11l-0.499-0.216l0.203-0.568
							c0.513-1.434,1.043-2.861,1.603-4.276c0.269-0.712,0.565-1.413,0.854-2.117c0.291-0.703,0.574-1.41,0.886-2.104
							c1.213-2.793,2.497-5.558,4.014-8.229c-0.744,2.981-1.72,5.868-2.767,8.728c-0.253,0.718-0.536,1.425-0.809,2.135
							c-0.276,0.709-0.545,1.421-0.841,2.122c-0.569,1.411-1.169,2.811-1.787,4.203l-0.296-0.784
							C618.738,97.163,620.429,98.183,622.026,99.388z"/>
					</g>
					<g>
						<path style="fill:#211B23;" d="M610.144,86.461c0,0-0.031-0.232-0.022-0.644c0.014-0.41,0.069-1.002,0.288-1.695
							c0.218-0.686,0.613-1.501,1.375-2.162c0.762-0.66,1.914-0.987,2.947-0.871c0.136,0.016,0.243,0.021,0.402,0.049l0.335,0.062
							c0.266,0.065,0.523,0.14,0.76,0.231c0.479,0.191,0.936,0.462,1.301,0.814c0.754,0.692,1.101,1.606,1.191,2.337
							c0.103,0.742,0.009,1.345-0.089,1.748c-0.098,0.405-0.204,0.618-0.204,0.618s-0.022-0.236-0.09-0.628
							c-0.072-0.39-0.191-0.941-0.43-1.524c-0.24-0.584-0.631-1.17-1.191-1.588c-0.283-0.205-0.61-0.369-0.968-0.493
							c-0.184-0.066-0.361-0.112-0.536-0.155l-0.335-0.064l-0.275-0.036c-0.775-0.082-1.512,0.044-2.104,0.443
							c-0.604,0.383-1.062,0.978-1.401,1.527c-0.339,0.555-0.568,1.073-0.722,1.44C610.217,86.238,610.144,86.461,610.144,86.461z"
							/>
					</g>
					<g>
						<path style="fill:#211B23;" d="M627.745,88.126c0,0-0.029-0.232-0.015-0.644c0.019-0.41,0.081-1.001,0.307-1.692
							c0.226-0.684,0.631-1.493,1.4-2.146c0.769-0.651,1.925-0.965,2.957-0.837c0.136,0.018,0.242,0.024,0.402,0.053l0.334,0.066
							c0.265,0.068,0.522,0.146,0.757,0.24c0.477,0.197,0.931,0.473,1.291,0.829c0.746,0.701,1.082,1.619,1.164,2.351
							c0.094,0.743-0.007,1.345-0.109,1.746c-0.103,0.404-0.211,0.615-0.211,0.615s-0.019-0.237-0.083-0.629
							c-0.068-0.391-0.18-0.943-0.413-1.529c-0.233-0.587-0.617-1.178-1.172-1.602c-0.281-0.208-0.606-0.377-0.963-0.504
							c-0.183-0.068-0.36-0.116-0.534-0.161l-0.334-0.068l-0.275-0.04c-0.774-0.091-1.512,0.026-2.109,0.419
							c-0.609,0.375-1.073,0.965-1.419,1.511c-0.345,0.551-0.581,1.067-0.739,1.432C627.821,87.904,627.745,88.126,627.745,88.126z"
							/>
					</g>
					<g>
						<path style="fill:#D38B85;" d="M614.75,103.026c0,0,0.258,0.193,0.731,0.478c0.472,0.285,1.146,0.68,1.991,1.051
							c0.411,0.206,0.89,0.354,1.369,0.552c0.502,0.14,1.015,0.333,1.568,0.435c0.274,0.058,0.553,0.117,0.835,0.176
							c0.287,0.027,0.577,0.054,0.867,0.094c0.578,0.11,1.179,0.039,1.771,0.066c0.593-0.032,1.188-0.088,1.771-0.16
							c0.572-0.145,1.154-0.209,1.702-0.356c0.537-0.182,1.068-0.332,1.574-0.48c0.491-0.198,0.955-0.384,1.384-0.557
							c0.436-0.166,0.836-0.326,1.169-0.51c0.346-0.167,0.648-0.312,0.896-0.431c0.505-0.233,0.805-0.358,0.805-0.358
							s-0.226,0.223-0.643,0.598c-0.212,0.185-0.47,0.409-0.766,0.666c-0.152,0.124-0.308,0.267-0.484,0.399
							c-0.186,0.119-0.381,0.244-0.584,0.374c-0.411,0.257-0.851,0.554-1.345,0.816c-0.51,0.229-1.052,0.477-1.624,0.707
							c-0.582,0.197-1.206,0.361-1.838,0.517c-0.644,0.1-1.308,0.183-1.971,0.23c-0.667-0.041-1.339,0.009-1.986-0.126
							c-0.325-0.047-0.646-0.102-0.961-0.163c-0.308-0.091-0.612-0.181-0.911-0.269c-0.604-0.153-1.138-0.449-1.654-0.672
							c-0.497-0.273-0.965-0.526-1.357-0.826c-0.41-0.267-0.746-0.569-1.043-0.827c-0.293-0.266-0.532-0.513-0.719-0.726
							C614.918,103.301,614.75,103.026,614.75,103.026z"/>
					</g>
				</g>
			</g>
			<g>
				<g>
					<g>
						<path style="fill:#3A323F;" d="M598.388,432.181c0,0,0.273,18.394-0.679,18.579c-0.952,0.185-53.461-0.501-42.013-6.016
							s25.028-6.831,25.028-6.831l-0.876-13.007L598.388,432.181z"/>
						<path style="fill:#201A23;" d="M595.258,437c1.057-0.087,2.111-0.196,3.165-0.301c-0.007-2.6-0.035-4.518-0.035-4.518
							l-18.54-7.275l0.78,11.583C585.383,437.666,590.372,437.405,595.258,437z"/>
						<path style="fill:#FDEDEE;" d="M572.445,448.228c-0.262-2.863-0.89-5.689-1.993-8.521c-5.26,1.014-10.085,2.68-15.181,5.119
							c-1.429,0.684-1.865,1.291-1.545,1.832c0.003,0.005,0.005,0.01,0.008,0.015c0.036,0.058,0.083,0.115,0.137,0.172
							c0.009,0.009,0.015,0.018,0.024,0.027c0.054,0.053,0.117,0.106,0.186,0.158c0.015,0.011,0.029,0.023,0.044,0.034
							c0.07,0.05,0.148,0.1,0.232,0.149c0.021,0.012,0.042,0.025,0.064,0.037c0.085,0.048,0.178,0.095,0.276,0.141
							c0.027,0.013,0.054,0.026,0.083,0.039c0.101,0.046,0.207,0.091,0.32,0.135c0.032,0.013,0.065,0.025,0.097,0.038
							c0.115,0.044,0.236,0.087,0.363,0.13c0.038,0.013,0.076,0.025,0.115,0.038c0.129,0.042,0.263,0.084,0.403,0.125
							c0.042,0.012,0.085,0.024,0.127,0.036c0.144,0.041,0.291,0.082,0.445,0.121c0.043,0.011,0.089,0.022,0.133,0.033
							c0.16,0.04,0.323,0.08,0.493,0.12c0.042,0.01,0.086,0.019,0.129,0.029c0.177,0.04,0.357,0.08,0.545,0.118
							c0.038,0.008,0.077,0.015,0.115,0.023c0.198,0.04,0.399,0.08,0.608,0.119c0.021,0.004,0.044,0.008,0.065,0.012
							c1.412,0.262,3.055,0.496,4.855,0.704c0.053,0.006,0.105,0.013,0.159,0.019c0.226,0.026,0.456,0.051,0.687,0.076
							c0.1,0.011,0.199,0.022,0.299,0.033c0.207,0.022,0.417,0.043,0.627,0.065c0.131,0.013,0.261,0.027,0.393,0.04
							c0.189,0.019,0.381,0.037,0.573,0.055c0.156,0.015,0.313,0.03,0.471,0.044c0.185,0.017,0.373,0.034,0.56,0.05
							c0.164,0.015,0.327,0.029,0.492,0.043c0.183,0.016,0.367,0.031,0.552,0.047c0.18,0.015,0.36,0.03,0.542,0.044
							c0.172,0.014,0.344,0.027,0.517,0.041c0.194,0.015,0.389,0.03,0.585,0.045c0.164,0.012,0.328,0.025,0.493,0.037
							c0.21,0.015,0.421,0.031,0.633,0.046c0.155,0.011,0.31,0.022,0.465,0.033c0.221,0.015,0.442,0.03,0.664,0.045
							c0.088,0.006,0.176,0.012,0.264,0.018l0,0c11.734,0.767,24.699,1.499,25.17,1.407c0.172-0.033,0.468-0.922,0.375-2.281
							C594.172,449.128,582.738,448.934,572.445,448.228z"/>
						<path style="fill:none;stroke:#FDEDEE;stroke-width:0.9701;stroke-linecap:round;stroke-miterlimit:10;" d="M572.828,439.147
							c0,0,1.304,1.963,1.489,3.867"/>
						<path style="fill:none;stroke:#FDEDEE;stroke-width:0.9701;stroke-linecap:round;stroke-miterlimit:10;" d="M578.167,438.111
							c0,0,1.304,1.963,1.489,3.867"/>
						<path style="fill:none;stroke:#FDEDEE;stroke-width:0.9701;stroke-linecap:round;stroke-miterlimit:10;" d="M575.515,438.718
							c0,0,1.304,1.963,1.489,3.867"/>
					</g>
					<g>
						<path style="fill:#3A323F;" d="M661.724,434.016c0,0-1.292,18.35-0.351,18.588c0.941,0.237,53.407,2.461,42.282-3.679
							c-11.125-6.14-24.611-8.207-24.611-8.207l1.595-12.938L661.724,434.016z"/>
						<path style="fill:#201A23;" d="M664.583,439.002c-1.051-0.146-2.097-0.313-3.143-0.477c0.151-2.595,0.285-4.509,0.285-4.509
							l18.915-6.236l-1.42,11.522C674.406,440.213,669.439,439.676,664.583,439.002z"/>
						<path style="fill:#FDEDEE;" d="M686.739,451.476c0.42-2.844,1.204-5.631,2.462-8.397c5.196,1.303,9.921,3.235,14.874,5.952
							c1.389,0.762,1.791,1.393,1.441,1.915c-0.003,0.005-0.005,0.01-0.008,0.015c-0.039,0.056-0.09,0.11-0.146,0.164
							c-0.009,0.009-0.016,0.017-0.026,0.026c-0.056,0.051-0.123,0.1-0.194,0.148c-0.016,0.01-0.03,0.021-0.046,0.032
							c-0.073,0.046-0.154,0.091-0.24,0.136c-0.022,0.011-0.043,0.023-0.066,0.034c-0.088,0.043-0.183,0.085-0.284,0.126
							c-0.028,0.011-0.056,0.023-0.085,0.034c-0.103,0.04-0.212,0.079-0.327,0.118c-0.033,0.011-0.066,0.022-0.099,0.032
							c-0.117,0.038-0.24,0.074-0.369,0.11c-0.038,0.011-0.078,0.021-0.117,0.032c-0.131,0.035-0.267,0.069-0.409,0.103
							c-0.042,0.01-0.086,0.02-0.129,0.029c-0.146,0.033-0.295,0.065-0.451,0.097c-0.044,0.009-0.089,0.017-0.134,0.026
							c-0.162,0.031-0.327,0.062-0.499,0.092c-0.043,0.007-0.087,0.014-0.13,0.022c-0.179,0.03-0.361,0.06-0.551,0.088
							c-0.038,0.006-0.078,0.011-0.116,0.017c-0.2,0.029-0.403,0.058-0.614,0.085c-0.022,0.003-0.044,0.005-0.066,0.008
							c-1.424,0.183-3.078,0.326-4.886,0.434c-0.054,0.003-0.106,0.007-0.16,0.01c-0.227,0.013-0.458,0.025-0.69,0.038
							c-0.1,0.005-0.2,0.011-0.301,0.016c-0.208,0.01-0.419,0.02-0.63,0.03c-0.131,0.006-0.262,0.012-0.395,0.018
							c-0.19,0.008-0.382,0.016-0.575,0.023c-0.157,0.006-0.314,0.013-0.472,0.018c-0.186,0.007-0.374,0.013-0.562,0.019
							c-0.164,0.005-0.328,0.011-0.493,0.016c-0.184,0.006-0.368,0.011-0.553,0.016c-0.181,0.005-0.361,0.01-0.543,0.015
							c-0.172,0.004-0.345,0.008-0.518,0.012c-0.195,0.004-0.39,0.009-0.587,0.013c-0.164,0.003-0.329,0.006-0.494,0.009
							c-0.211,0.004-0.422,0.007-0.634,0.01c-0.155,0.002-0.311,0.005-0.466,0.007c-0.221,0.003-0.443,0.006-0.665,0.008
							c-0.088,0.001-0.176,0.002-0.264,0.003c0,0,0,0,0,0c-11.759,0.116-24.744,0.128-25.209,0.011
							c-0.17-0.043-0.416-0.946-0.248-2.298C664.995,451.171,676.422,451.611,686.739,451.476z"/>
						<path style="fill:none;stroke:#FDEDEE;stroke-width:0.9701;stroke-linecap:round;stroke-miterlimit:10;" d="M686.86,442.388
							c0,0-1.411,1.888-1.701,3.778"/>
						<path style="fill:none;stroke:#FDEDEE;stroke-width:0.9701;stroke-linecap:round;stroke-miterlimit:10;" d="M681.586,441.058
							c0,0-1.411,1.888-1.701,3.778"/>
						<path style="fill:none;stroke:#FDEDEE;stroke-width:0.9701;stroke-linecap:round;stroke-miterlimit:10;" d="M684.201,441.811
							c0,0-1.411,1.888-1.701,3.778"/>
					</g>
				</g>
				<g>
					<path style="fill:#765E69;" d="M666.794,225.401c0,0,15.943,123.971,15.801,207.413c0,0-12.928,5.069-23.928,0.331
						l-22.892-158.803l-6.467,0.089l-29.482,160.174c0,0-14.75-1.687-19.473-4.906c-4.722-3.219,17.952-198.824,17.952-198.824
						L666.794,225.401z"/>
					<path style="opacity:0.3;fill:#211B23;" d="M669.715,249.84c-1.728-15.163-2.92-24.439-2.92-24.439l-68.488,5.474
						c0,0-1.214,10.47-3.02,26.599C620.558,259.745,646.104,258.644,669.715,249.84z"/>
					<path style="fill:#876978;" d="M683.954,435.464c0,0-13.622,5.648-26.4,1.482l-0.641-6.061c0,0,13.236,2.3,26.717-1.888
						L683.954,435.464z"/>
					<path style="fill:#876978;" d="M576.656,431.975c0,0,11.755,6.162,24.892,3.313l1.238-5.886c0,0-12.861,0.483-25.871-4.934
						L576.656,431.975z"/>
				</g>
			</g>
			<g>
				<g>
					<g>
						<path style="fill:#EF9F95;" d="M543.576,143.109c0,0,1.05,13.98,40.626,16.484c34.519,2.185-6.012-24.296-6.012-24.296
							l-12.524-2.004L543.576,143.109z"/>
					</g>
					<g>
						<path style="fill:#EF9F95;" d="M715.05,147.028c0,0-2.404,13.811-42.036,12.457c-34.568-1.181,8.345-23.597,8.345-23.597
							l12.659-0.777L715.05,147.028z"/>
					</g>
				</g>
				<g>
					<path style="fill:#FC6A5A;" d="M573.425,132.942l24.051-2.655c1.711-0.211,13.536-1.076,15.53-1.252
						c7.396,12.624,27.194,11.364,33.112-1.432c3.125,0.017,13.282,1.833,15.981,1.933l24.13,4.394
						c1.538,11.648-6.047,30.484-6.047,30.484c-5.61,0.686-8.495,0.472-12.395,0.31c-1.523,20.293,5.752,82.113,3.715,82.982
						c-32.629,13.917-83.028-1.123-83.028-1.123s0.141-63.542,0.692-82.102c-3.144,0.339-8.802,0.069-12.976-0.736
						C576.19,163.746,569.883,147.394,573.425,132.942z"/>
					<path style="opacity:0.2;fill:#211B23;" d="M620.486,188.83c13.982,8.572,28.251,15.548,44.133,19.849
						c1.648,0.446,3.301,0.868,4.953,1.289c1.461,19.545,3.015,37.276,1.931,37.738c-32.629,13.917-83.028-1.123-83.028-1.123
						s0.119-53.546,0.564-76.686C599.84,175.632,610.036,182.423,620.486,188.83z"/>
				</g>
			</g>
			<g>
				<path style="fill:none;stroke:#352C38;stroke-width:0.9158;stroke-miterlimit:10;" d="M605.277,98.555
					c0,0-22.541,44.247,11.091,61.063c33.632,16.816-3.881,43.98-3.881,43.98s32.985-5.174,31.691-42.04
					c-1.293-36.866-7.92-44.76,5.662-59.635"/>
				<path style="fill:none;stroke:#352C38;stroke-width:0.9158;stroke-miterlimit:10;" d="M609.253,204.891
					c0,0-34.925,5.174-34.279,34.925c0.647,29.751,18.756,30.398,18.756,30.398"/>
				<polygon style="fill:#352C38;" points="607.06,203.647 607.877,206.422 612.775,204.3 611.632,202.34 				"/>
			</g>
			<g>
				<path style="fill:#FFAC9D;" d="M543.576,143.109c0,0,1.052,8.649,17.789,1.353c16.737-7.297,41.407-33.001,42.262-37.557
					c0.855-4.555,0.469-13.928,0.469-13.928s11.39-18.898-1.907-4.094c0,0,11.945-30.743-3.875-1.231c0,0,9.354-26.116-3.196-1.607
					l-1.567,12.582c0,0,0.49,3.457-12.428,10.596C568.203,116.363,540.24,129.686,543.576,143.109z"/>
				<path style="fill:#FFAC9D;" d="M715.132,147.759c0,0-1.638,8.558-17.84,0.14c-16.202-8.418-39.067-35.741-39.61-40.344
					c-0.543-4.603,0.48-13.927,0.48-13.927s-10.079-19.629,2.181-3.955c0,0-9.826-31.484,3.95-0.965c0,0-7.556-26.692,3.297-1.386
					l0.708,12.66c0,0-0.724,3.415,11.679,11.417C692.381,119.4,719.373,134.594,715.132,147.759z"/>
			</g>
		</g>
	</g>
	<g>
		<ellipse style="opacity:0.1;fill:#211B23;" cx="442.936" cy="448.88" rx="61.98" ry="8.221"/>
		<g>
			<g>
				<g>
					<g>
						<path style="fill:#F19C7C;" d="M495.645,421.618c0,0-2.08,24.206-4.008,25.47c-1.929,1.264-39.557,6.685-8.851-3.38
							l-4.587-29.096L495.645,421.618z"/>
						<path style="opacity:0.2;fill:#251F28;" d="M494.162,435.482c0.869-6.726,1.483-13.863,1.483-13.863l-17.446-7.006
							l3.473,22.03C485.852,436.402,490.015,436.007,494.162,435.482z"/>
						<path style="fill:#5D8584;" d="M481.727,444.038c0,0-23.438,7.303-2.716,5.658c0,0,12.303-1.511,13.278-2.644l0.503-2.645
							C492.792,444.406,478.597,447.833,481.727,444.038z"/>
					</g>
					<g>
						<path style="fill:#3A323F;" d="M492.245,219.883c0,0,19.007,69.69,3.801,127.977c0,0,12.037,36.112-1.267,86.163
							l-13.305,1.901c0,0-17.106-105.169-17.739-148.25C463.102,244.592,492.245,219.883,492.245,219.883z"/>
						<path style="fill:#251F28;" d="M465.716,311.94c6.335,0.567,12.82,1.327,19.186,1.249c5.851-0.072,11.369-1.171,16.69-2.882
							c2.498-46.976-9.347-90.423-9.347-90.423s-29.143,24.708-28.51,67.79c0.099,6.757,0.604,15.043,1.385,24.209
							C465.318,311.9,465.517,311.922,465.716,311.94z"/>
					</g>
				</g>
				<g>
					<g>
						<path style="fill:#F19C7C;" d="M422.238,421.668c0,0-9.187,22.491-11.404,23.125c-2.217,0.634-39.755-5.385-7.444-5.86
							l4.276-29.143L422.238,421.668z"/>
						<path style="opacity:0.2;fill:#251F28;" d="M416.697,434.463c2.831-6.163,5.54-12.795,5.54-12.795l-14.572-11.879
							l-3.238,22.066C408.491,432.87,412.582,433.731,416.697,434.463z"/>
						<path style="fill:#5D8584;" d="M402.281,438.933c0,0-24.55,0-4.276,4.593c0,0,12.196,2.217,13.463,1.426l1.267-2.376
							C412.734,442.576,398.163,441.625,402.281,438.933z"/>
					</g>
					<g>
						<path style="fill:#3A323F;" d="M467.266,225.427c0,0,1.463,72.221-27.478,125.05c0,0,2.881,37.956-22.211,83.26l-13.395-3.832
							c0,0,9.048-103.733,18.925-145.671C432.983,242.295,467.266,225.427,467.266,225.427z"/>
						<path style="fill:#251F28;" d="M448.039,309.454c2.568,0.396,5.142,0.75,7.718,1.081
							c12.352-43.278,11.508-85.108,11.508-85.108s-34.283,16.868-44.159,58.806c-1.258,5.34-2.501,11.724-3.714,18.794
							C428.743,305.935,438.372,307.961,448.039,309.454z"/>
					</g>
				</g>
			</g>
			<g>
				<g>
					<path style="fill:#F19C7C;" d="M472.309,114.796l1.33,26.106l17.241,2.069c0,0-26.802,36.068-28.29,36.045
						c-12.54-0.192-22.053-33.976-22.053-33.976l14.51-2.425l-0.582-21.415L472.309,114.796z"/>
					<path style="opacity:0.15;fill:#352C38;" d="M471.835,135.141c0.482-0.208,0.967-0.42,1.452-0.635l-0.978-19.709l-17.844,6.404
						l0.428,19.276C459.796,139.443,467.533,136.999,471.835,135.141z"/>
				</g>
				<g>
					<path style="fill:#6F96BD;" d="M480.434,117.608c0,0-3.035,3.954-5.652,4.846c-2.617,0.891,2.928-5.739,2.928-5.739
						L480.434,117.608z"/>
					<path style="fill:#F19C7C;" d="M480.375,101.067c0,0-0.144-15.499-17.787-18.461c-17.643-2.961-25.087,12.78-25.724,24.864
						c-0.637,12.084,2.653,25.578,16.383,27.617C469.943,137.565,479.168,121.456,480.375,101.067z"/>
					<path style="fill:#F19C7C;" d="M479.55,104.365c0,0,6.931-1.841,6.1,5.366c-1.33,11.537-9.346,8.077-9.346,8.077
						S479.449,113.766,479.55,104.365z"/>
					<path style="fill:#6F96BD;" d="M479.496,105.924l-1.365,7.567c0,0-3.582-4.643-0.732-13.135c0,0-5.709-3.898-4.653-11.96
						c0,0-9.75,6.501-22.689,6.105l7.858-2.836c0,0-17.321-0.044-21.906,6.939c0,0-0.977-10.391,8.474-17.711
						c0,0-7.976,6.717-9.418,11.53c0,0,0.886-13.086,15.297-18.473c0,0-7.141,0.591-12.48,5.77c0,0,7.659-12.231,29.072-8.338
						c0,0-5.724-3.413-15.742-4.043c0,0,16.748-2.402,27.4,9.256c0,0,6.848-1.338,10.34,5.982
						c5.173,10.843-3.438,24.178-3.438,24.178s-0.462-1.32-1.504-1.989C482.787,103.981,480.868,103.954,479.496,105.924z"/>
				</g>
				<g>
					<g>
						<path style="fill:#352C38;" d="M450.806,101.727c0,0-0.776-0.368-1.861-0.712c-0.266-0.098-0.572-0.151-0.871-0.244
							c-0.314-0.052-0.624-0.154-0.96-0.184c-0.164-0.025-0.331-0.05-0.5-0.075c-0.171-0.006-0.343-0.015-0.514-0.032
							c-0.341-0.047-0.694,0.004-1.042-0.012c-0.351,0.033-0.701,0.065-1.046,0.098c-0.342,0.079-0.69,0.11-1.024,0.185
							c-0.33,0.091-0.657,0.168-0.974,0.236c-0.307,0.097-0.604,0.19-0.887,0.268c-0.572,0.141-1.024,0.35-1.38,0.438
							c-0.348,0.102-0.563,0.149-0.563,0.149s0.116-0.175,0.346-0.463c0.242-0.27,0.552-0.724,1.067-1.091
							c0.249-0.196,0.519-0.418,0.826-0.621c0.322-0.177,0.669-0.36,1.037-0.535c0.374-0.161,0.788-0.274,1.203-0.396
							c0.424-0.095,0.87-0.142,1.312-0.186c0.447,0.023,0.898-0.019,1.331,0.081c0.437,0.059,0.857,0.165,1.247,0.315
							c0.399,0.118,0.748,0.33,1.081,0.497c0.318,0.204,0.613,0.397,0.855,0.618c0.504,0.407,0.832,0.843,1.038,1.151
							C450.731,101.524,450.806,101.727,450.806,101.727z"/>
					</g>
					<g>
						<path style="fill:#352C38;" d="M448.227,108.383c0,0,0.041,0.217,0.091,0.597c0.022,0.19,0.056,0.419,0.074,0.683
							c-0.007,0.27-0.015,0.582-0.044,0.925c-0.01,0.348-0.126,0.702-0.215,1.092c-0.129,0.376-0.277,0.792-0.541,1.171
							c-0.142,0.186-0.27,0.388-0.44,0.567c-0.189,0.166-0.383,0.338-0.597,0.485c-0.243,0.111-0.487,0.236-0.746,0.318
							c-0.27,0.038-0.549,0.109-0.822,0.095c-0.556-0.038-1.065-0.224-1.502-0.481c-0.205-0.141-0.408-0.287-0.592-0.443
							c-0.156-0.175-0.311-0.349-0.462-0.519c-0.285-0.347-0.484-0.73-0.66-1.084c-0.142-0.369-0.298-0.709-0.366-1.041
							c-0.076-0.33-0.131-0.633-0.177-0.898c-0.032-0.269-0.029-0.507-0.037-0.7c-0.008-0.386,0-0.603,0-0.603
							s0.101,0.201,0.255,0.547c0.074,0.171,0.163,0.379,0.265,0.618c0.124,0.228,0.262,0.482,0.395,0.759
							c0.136,0.277,0.35,0.536,0.517,0.834c0.204,0.271,0.43,0.55,0.673,0.802c0.129,0.117,0.259,0.236,0.392,0.357
							c0.148,0.089,0.295,0.175,0.435,0.276c0.297,0.158,0.609,0.25,0.914,0.265c0.152,0.017,0.298-0.033,0.45-0.032
							c0.145-0.045,0.282-0.117,0.43-0.164c0.129-0.095,0.258-0.192,0.397-0.277c0.126-0.106,0.23-0.247,0.349-0.365
							c0.215-0.259,0.401-0.561,0.564-0.852c0.12-0.315,0.307-0.599,0.388-0.89c0.089-0.288,0.189-0.556,0.278-0.799
							c0.064-0.257,0.12-0.481,0.166-0.666C448.158,108.593,448.227,108.383,448.227,108.383z"/>
					</g>
					<g>
						<path style="fill:#352C38;" d="M466.637,108.465c0,0,0.041,0.217,0.091,0.597c0.022,0.189,0.056,0.419,0.074,0.683
							c-0.007,0.27-0.015,0.582-0.044,0.925c-0.01,0.348-0.126,0.703-0.215,1.092c-0.129,0.376-0.277,0.792-0.541,1.171
							c-0.142,0.186-0.269,0.388-0.44,0.567c-0.189,0.166-0.383,0.338-0.597,0.485c-0.243,0.111-0.487,0.236-0.746,0.318
							c-0.27,0.038-0.549,0.109-0.822,0.095c-0.556-0.037-1.065-0.224-1.503-0.481c-0.205-0.142-0.408-0.287-0.592-0.443
							c-0.156-0.175-0.311-0.349-0.462-0.519c-0.285-0.347-0.484-0.731-0.659-1.084c-0.142-0.369-0.298-0.709-0.366-1.041
							c-0.077-0.329-0.131-0.633-0.177-0.898c-0.032-0.269-0.029-0.507-0.037-0.7c-0.008-0.386,0-0.603,0-0.603
							s0.101,0.201,0.255,0.547c0.074,0.171,0.163,0.379,0.265,0.618c0.124,0.228,0.262,0.482,0.395,0.759
							c0.136,0.278,0.35,0.536,0.517,0.834c0.204,0.271,0.43,0.55,0.673,0.802c0.129,0.117,0.259,0.236,0.392,0.357
							c0.148,0.089,0.295,0.175,0.435,0.276c0.297,0.158,0.609,0.25,0.914,0.265c0.152,0.017,0.298-0.033,0.45-0.032
							c0.145-0.045,0.282-0.117,0.43-0.164c0.129-0.095,0.258-0.192,0.397-0.277c0.126-0.106,0.23-0.247,0.349-0.365
							c0.215-0.259,0.401-0.561,0.564-0.852c0.12-0.315,0.307-0.599,0.388-0.89c0.089-0.288,0.189-0.556,0.278-0.799
							c0.064-0.257,0.12-0.481,0.166-0.666C466.568,108.675,466.637,108.465,466.637,108.465z"/>
					</g>
					<g>
						<path style="fill:#CE795F;" d="M451.462,104.781c-0.08,1.062-0.226,2.106-0.397,3.144c-0.165,1.039-0.367,2.069-0.584,3.095
							c-0.215,1.026-0.456,2.046-0.716,3.06c-0.243,1.019-0.546,2.022-0.822,3.032l-0.273-0.743c0.712,0.55,1.413,1.116,2.087,1.718
							c0.672,0.607,1.33,1.234,1.933,1.939c-0.869-0.325-1.683-0.729-2.484-1.151c-0.798-0.427-1.569-0.892-2.33-1.372l-0.397-0.25
							l0.124-0.493c0.255-1.016,0.484-2.038,0.772-3.045c0.271-1.012,0.562-2.018,0.878-3.018c0.314-1,0.644-1.996,1.01-2.983
							C450.625,106.727,451.011,105.745,451.462,104.781z"/>
					</g>
					<path style="fill:#FFFFFF;" d="M448.69,123.568c2.259,2.604,12.837,2.083,15.222-2.21"/>
					<g>
						<path style="fill:#352C38;" d="M468.547,101.325c0,0-0.776-0.368-1.861-0.712c-0.266-0.098-0.572-0.151-0.871-0.244
							c-0.314-0.052-0.624-0.154-0.96-0.184c-0.164-0.025-0.331-0.05-0.5-0.075c-0.171-0.006-0.342-0.015-0.514-0.032
							c-0.341-0.047-0.694,0.004-1.042-0.012c-0.351,0.033-0.701,0.065-1.047,0.098c-0.342,0.079-0.69,0.11-1.024,0.185
							c-0.33,0.091-0.657,0.168-0.975,0.236c-0.307,0.097-0.605,0.19-0.887,0.268c-0.572,0.141-1.024,0.35-1.38,0.438
							c-0.348,0.102-0.563,0.149-0.563,0.149s0.115-0.175,0.345-0.463c0.242-0.27,0.553-0.724,1.067-1.091
							c0.249-0.197,0.519-0.418,0.826-0.621c0.322-0.177,0.669-0.359,1.037-0.535c0.374-0.161,0.788-0.274,1.203-0.396
							c0.424-0.096,0.87-0.142,1.312-0.186c0.447,0.023,0.898-0.019,1.331,0.081c0.437,0.059,0.857,0.165,1.247,0.315
							c0.399,0.117,0.748,0.33,1.081,0.497c0.318,0.204,0.613,0.397,0.855,0.618c0.504,0.407,0.832,0.843,1.038,1.151
							C468.472,101.122,468.547,101.325,468.547,101.325z"/>
					</g>
					<g>
						<path style="fill:#CE795F;" d="M483.614,110.643c-0.17-0.894-0.394-1.785-0.791-2.535c-0.199-0.366-0.462-0.684-0.749-0.81
							c-0.282-0.129-0.602-0.066-0.948,0.085l0.277-0.354c-0.108,1.024-0.251,2.042-0.413,3.058
							c-0.163,1.015-0.349,2.027-0.569,3.034l-0.262-0.448c0.393,0.184,0.729,0.39,1.048,0.688c0.154,0.151,0.299,0.327,0.402,0.545
							c0.104,0.215,0.15,0.485,0.094,0.73c-0.138,0.49-0.497,0.749-0.817,0.959c-0.331,0.211-0.686,0.355-1.047,0.472
							c0.309-0.22,0.611-0.446,0.874-0.694c0.256-0.245,0.476-0.556,0.476-0.821c0.018-0.499-0.727-0.901-1.32-1.108l-0.293-0.103
							l0.031-0.346c0.092-1.026,0.218-2.047,0.366-3.065c0.151-1.017,0.319-2.032,0.523-3.041l0.056-0.277l0.221-0.077
							c0.253-0.088,0.521-0.165,0.817-0.167c0.295,0.001,0.605,0.08,0.859,0.235c0.517,0.316,0.768,0.81,0.929,1.264
							c0.164,0.461,0.23,0.932,0.262,1.395C483.672,109.725,483.673,110.187,483.614,110.643z"/>
					</g>
				</g>
			</g>
			<g>
				<path style="fill:#5D8584;" d="M507.967,152.913c-4.328-8.563-18.983-10.459-18.983-10.459s-7.54,13.925-26.407,13.851
					c-16.856-0.066-21.522-11.98-21.522-11.98c-18.221,3.468-18.162,9.76-24.122,23.667c-5.96,13.907-12.548,50.59-12.548,50.59
					l28.036-5.837l-1.4,5.849c-5.666,14.184-19.245,77.331-19.245,77.331c40.852,17.135,85.414,9.632,85.414,9.632l-0.969-52.859
					l5.506,48.087c2.828-1.01,3.434-0.606,3.434-0.606c5.874-46.84-9.405-78.866-10.441-80.665
					c-0.321-1.784-0.526-2.868-0.526-2.868s25.618,17.892,25.828,2.803C520.231,204.361,515.244,167.308,507.967,152.913z"/>
				<path style="opacity:0.2;fill:#251F28;" d="M494.192,216.648c0,0,1.897,1.322,4.653,2.942
					c-3.506-14.533-6.559-29.173-7.491-44.112c-17.918,5.552-36.255,10.344-55.02,11.778c-8.458,0.646-16.888,0.575-25.25-0.178
					c-3.743,15.048-6.7,31.505-6.7,31.505l28.036-5.837l-1.399,5.849c-5.666,14.184-19.245,77.331-19.245,77.331
					c40.852,17.135,85.414,9.632,85.414,9.632l-0.969-52.859l5.506,48.087c2.828-1.616,3.434-0.606,3.434-0.606
					c5.754-46.599-9.408-78.871-10.441-80.665C494.398,217.732,494.192,216.648,494.192,216.648z"/>
			</g>
			<g>
				<g>
					<path style="fill:#352C38;" d="M480.57,111.686l-0.333,1.165c0,0,2.774,1.22,0.166,3.051c0,0,1.997,0.943,2.718-1.109
						S482.844,112.019,480.57,111.686z"/>
					<path style="fill:none;stroke:#352C38;stroke-width:0.9701;stroke-miterlimit:10;" d="M483.122,114.793
						c0,0,12.011,4.725,6.432,16.61c-5.578,11.884-14.552,13.582-9.701,32.257c4.851,18.675,27.892,82.463-7.519,92.649
						c-25.873,7.443-14.795-32.5-12.369-39.534c2.425-7.033,4.608-14.552,2.91-21.828"/>
					<polygon style="fill:#352C38;" points="461.42,198.585 461.905,204.164 464.088,204.649 464.815,199.313 					"/>
					<path style="fill:none;stroke:#352C38;stroke-width:0.9701;stroke-miterlimit:10;" d="M440.076,121.701
						c0,0-10.09,26.067,9.944,25.466c24.254-0.728,22.313,19.403,30.075,19.16"/>
					<path style="fill:#F19C7C;" d="M444.005,123.04c-1.871-1.855-4.076-3.249-6.423-4.395c1.06,5.196,3.281,9.893,7.232,12.973
						C446.779,128.895,446.787,125.798,444.005,123.04z"/>
				</g>
				<g>
					<g>
						<path style="fill:#251F28;" d="M454.791,196.686c0.039,1.975,1.672,3.544,3.647,3.505l11.622-0.23
							c1.975-0.039,3.544-1.672,3.505-3.647l-0.601-30.395c-0.039-1.975-1.672-3.544-3.647-3.505l-11.622,0.23
							c-1.975,0.039-3.544,1.672-3.505,3.647L454.791,196.686z"/>
						<path style="fill:#765E69;" d="M452.897,196.932c0.039,1.975,1.672,3.544,3.647,3.505l11.622-0.23
							c1.975-0.039,3.544-1.672,3.505-3.647l-0.601-30.395c-0.039-1.975-1.672-3.544-3.647-3.505l-11.622,0.23
							c-1.975,0.039-3.544,1.672-3.505,3.647L452.897,196.932z"/>
					</g>
					<g>
						<path style="fill:#F19C7C;" d="M513.323,204.911c0,0,7.418,4.394,7.127,11.952c-0.292,7.558-1.099,10.594-4.961,11.744
							c-3.863,1.151-10.79-0.016-21.783-11.033c-10.993-11.017-18.639-21.881-18.639-21.881s-5.431-7.776-4.54-12.108
							c0,0-14.473-0.811,0.178-2.053c0,0-17.747-2.8-0.158-2.695c0,0-12.761-1.598,0.601-2.493c0,0-16.346-2.934,1.897-2.409
							c0,0,5.169-0.527,7.556,11.836L513.323,204.911z"/>
						<path style="fill:#F19C7C;" d="M411.064,206.374c0,0-7.25,4.666-6.679,12.208c0.571,7.542,1.49,10.546,5.393,11.553
							c3.903,1.007,10.782-0.415,21.36-11.833c10.578-11.417,17.816-22.556,17.816-22.556s4.492-8.067,3.441-12.364
							c0,0,14.813,1.668,0.394-1.949c0,0,17.631-3.455,0.058-2.698c0,0,12.693-2.069-0.693-2.469c0,0,16.538-4.298-1.674-3.098
							c0,0-5.715,0.214-7.424,12.869L411.064,206.374z"/>
					</g>
				</g>
			</g>
		</g>
	</g>
	<g>
		<ellipse style="opacity:0.1;fill:#211B23;" cx="288.211" cy="448.88" rx="67.329" ry="8.393"/>
		<g>
			<g>
				<g>
					<g>
						<path style="fill:#F19C7C;" d="M305.589,420.722c0,0,0.696,24.694,1.082,28.047s35.049,6.105,32.846,3.169
							c-2.203-2.936-20.406-10.612-20.406-10.612l-0.166-24.051L305.589,420.722z"/>
						<path style="opacity:0.2;fill:#211B23;" d="M305.975,433.19c-0.217-6.479-0.386-12.467-0.386-12.467l13.356-3.447
							l0.115,16.654C314.698,433.694,310.334,433.485,305.975,433.19z"/>
						<path style="fill:#765E69;" d="M320.517,439.514l-7.041,4.519l1.462,3.072l-8.979-1.726l0.289,5.109
							c0,0,35.363,6.148,35.69,3.17C342.264,450.68,320.517,439.514,320.517,439.514z"/>
						<g>
							<path style="fill:#FDEDEE;" d="M341.321,452.407c0.492,0.543,0.765,1.009,0.727,1.359
								c-0.322,3.007-35.796-3.262-35.796-3.262l-0.092-1.595C309.956,449.568,338.634,454.466,341.321,452.407z"/>
						</g>
					</g>
					<g>
						<path style="fill:#F19C7C;" d="M234.894,408.121c0,0-9.308,22.883-10.846,25.887s-34.965-6.569-31.872-8.546
							c3.092-1.977,22.831-2.785,22.831-2.785l8.586-22.466L234.894,408.121z"/>
						<path style="opacity:0.2;fill:#211B23;" d="M230.162,419.662c2.475-5.991,4.732-11.541,4.732-11.541l-11.301-7.911
							l-5.946,15.557C221.816,417.077,225.977,418.41,230.162,419.662z"/>
						<path style="fill:#765E69;" d="M214.326,420.487l5.01,6.7l-2.447,2.365l9.014,1.531l-2.061,4.683
							c0,0-35.274-6.639-34.536-9.542C190.045,423.321,214.326,420.487,214.326,420.487z"/>
						<g>
							<path style="fill:#FDEDEE;" d="M190.429,425.215c-0.65,0.347-1.068,0.697-1.156,1.047
								c-0.756,3.009,34.541,9.676,34.541,9.676l0.647-1.502C220.687,433.711,192.211,428.158,190.429,425.215z"/>
						</g>
					</g>
				</g>
				<g>
					<g>
						<path style="fill:#6F96BD;" d="M337.448,231.876c0,0-2.471,135.357-16.502,198.705c0,0-5.871,4.186-20.194-1.474
							l0.285-158.869l-9.426-1.658c0,0-47.441,136.017-59.394,149.445c0,0-10.084-1.053-16.14-7.635
							c0,0,37.435-154.157,46.281-184.173C271.204,196.202,337.448,231.876,337.448,231.876z"/>
						<path style="opacity:0.2;fill:#3A323F;" d="M301.694,245.659c11.426,2.625,23.911,3.884,35.376,1.111
							c0.277-9.355,0.379-14.894,0.379-14.894s-66.245-35.674-75.09-5.658c-0.335,1.136-0.711,2.452-1.124,3.928
							C274.018,236.898,287.629,242.427,301.694,245.659z"/>
						<path style="opacity:0.2;fill:#3A323F;" d="M255.511,251.623c-13.868,53.49-39.434,158.768-39.434,158.768
							c6.056,6.582,16.14,7.635,16.14,7.635c11.479-12.896,55.682-138.836,59.167-148.798
							C287.383,267.712,271.486,261.198,255.511,251.623z"/>
					</g>
					<g>
						<path style="fill:#7FADD3;" d="M299.336,428.596c0,0,11.467,6.343,22.489,2.661l1.672-7.004c0,0-17.423-0.035-23.745-1.506
							L299.336,428.596z"/>
						<path style="fill:#7FADD3;" d="M233.752,418.586c0,0-12.804-0.032-20.266-8.556l2.061-6.891c0,0,14.697,8.389,20.751,10.166
							L233.752,418.586z"/>
					</g>
				</g>
			</g>
			<g>
				<g>
					<g>
						<path style="fill:#F19C7C;" d="M283.924,135.384l7.171-1.785l-3.499-20.024l18.998-12.188l5.517,31.392
							C312.112,132.779,311.473,148.679,283.924,135.384z"/>
						<path style="opacity:0.6;fill:#C6704E;" d="M309.928,120.354l-3.333-18.967l-18.998,12.188l3.08,17.626
							C297.542,128.444,304.071,124.965,309.928,120.354z"/>
					</g>
				</g>
				<g>
					<path style="fill:#F19C7C;" d="M326.602,123.8c0,0-54.524,12.112-59.966,16.445s7.18,38.183,7.661,51.883
						c0.482,13.7-6.419,36.214-6.419,36.214s42.838,15.815,54.247,2.96c10.088-11.366,23.476-45.741,15.395-89.272
						C336.463,136.329,328.182,129.755,326.602,123.8z"/>
					<g>
						<path style="fill:#FC6A5A;" d="M337.408,142.025c-1.098-5.702-9.639-12.287-11.274-18.245c0,0-5.521,1.184-13.272,2.942
							c-1.722,4.643-5.033,8.485-10.605,9.435c-5.382,0.917-10.771-0.556-15.448-3.2c-10.879,2.789-20.316,5.549-22.446,7.193
							c-5.602,4.327,7.447,38.194,7.961,51.896c0.514,13.702-6.568,36.207-6.568,36.207s45.884,20.21,57.625,7.369
							C333.761,224.268,345.791,185.569,337.408,142.025z"/>
						<path style="opacity:0.2;fill:#251F28;" d="M269.948,212.071c-1.885,8.845-4.193,16.183-4.193,16.183
							s45.884,20.21,57.625,7.369c9.11-9.964,19.485-40.987,16.226-77.861C320.817,181.576,299.643,206.861,269.948,212.071z"/>
					</g>
				</g>
				<g>
					<g>
						<g>
							<path style="fill:#F19C7C;" d="M320.285,132.306l30.784-44.421c0,0-24.862-88.382-10.506-54.742c0,0-7.285-26.932,2.67-0.941
								c0,0-7.398-24.512,4.224-0.35c0,0-7.486-22.411,4.202,0.175c11.688,22.585,20.946,56.755,18.013,63.999
								c-2.932,7.244-39.348,56.341-39.348,56.341L320.285,132.306z"/>
							<path style="fill:#F19C7C;" d="M339.449,38.938c0,0-16.044-3.229-0.444,4.978C354.605,52.124,339.449,38.938,339.449,38.938z
								"/>
						</g>
						<g>
							<path style="fill:#876978;" d="M318.704,239.359c0,0-1.861,5.852-0.893,6.341c0.968,0.489,16.501,0.687,21.407-4.948
								c0,0,3.142-6.427,2.937-10.119C341.949,226.941,318.704,239.359,318.704,239.359z"/>
							<path style="fill:#765E69;" d="M312.862,126.722c0,0,17.018,63.898,4.979,107.017c0,0-1.182,4.577,0.715,6.639
								c1.897,2.062,22.391,1.924,25.635-12.481c3.243-14.405,3.888-61.634-3.095-84.396c0,0,29.666-36.823,30.422-47.036
								s-8.135-50.896-14.911-54.813l-16.096,5.609c0,0-3.78,3.478-1.635,7.532c2.144,4.055,10.911,31.845,9.11,35.405
								C346.184,93.758,314.525,122.094,312.862,126.722z"/>
							<path style="fill:#876978;" d="M309.452,117.729c0,0,5.513,34.267,10.448,50.665c0,0-1.28-40.7,10.06-59.064
								c0,0-0.206-2.983-4.784-4.165c-4.577-1.182-16.96,5.531-16.96,5.531L309.452,117.729z"/>
							<path style="fill:#876978;" d="M340.157,47.878c0,0-2.201-3.236-1.644-3.662c0.557-0.426,16.717-6.67,16.717-6.67
								l1.375,4.106L340.157,47.878z"/>
						</g>
					</g>
					<g>
						<g>
							<polygon style="fill:#251F28;" points="226.533,216.971 228.359,218.409 230.254,215.66 228.141,213.582 							"/>
							<path style="fill:#251F28;" d="M230.419,207.382c1.408,1.054,1.695,3.051,0.641,4.459l-6.204,8.288
								c-1.054,1.409-3.051,1.696-4.459,0.641l-21.677-16.227c-1.408-1.054-1.695-3.051-0.641-4.459l6.204-8.288
								c1.054-1.408,3.051-1.695,4.459-0.641L230.419,207.382z"/>
							<path style="fill:#3A323F;" d="M231.581,206.14c1.408,1.054,1.696,3.051,0.641,4.459l-6.204,8.288
								c-1.054,1.408-3.051,1.695-4.459,0.641l-21.677-16.227c-1.409-1.054-1.696-3.051-0.641-4.459l6.204-8.288
								c1.054-1.409,3.051-1.696,4.459-0.641L231.581,206.14z"/>
						</g>
						<g>
							<g>
								<path style="fill:#F19C7C;" d="M276.905,159.586l-47.59,11.186c0,0-20.803,54.401-21.409,39.823c0,0-3.473,4.36-2.468-1.562
									c0,0-3.406,5.302-2.613-1.248c0,0-3.285,3.787-1.088-7.149c5.31-26.438,12.243-43.663,19.124-47.368
									c6.881-3.705,67.371-20.237,67.371-20.237L276.905,159.586z"/>
								<path style="fill:#F19C7C;" d="M212.868,205.971c0,0,12.833,6.973,2.214-4.581
									C204.464,189.835,212.868,205.971,212.868,205.971z"/>
							</g>
							<g>
								<path style="fill:#876978;" d="M252.821,229.429c0,0-2.085,4.764-1.128,5.523c0.957,0.758,20.63,11.549,33.29,9.561
									l2.492-5.915L252.821,229.429z"/>
								<path style="fill:#765E69;" d="M285.412,131.599c0,0-49.868,7.177-64.451,16.153c-14.583,8.976-23.627,43.628-18.156,47.161
									c5.471,3.532,14.68,4.577,14.68,4.577s4.948,0.206,7.574-7.285c2.625-7.491,7.82-21.154,7.82-21.154l33.593-5.211
									c0,0-3.408,42.157-11.778,52.714c-8.371,10.557,1.086,13.594,1.086,13.594s21.044,10.459,31.051,8.232
									C296.838,238.152,297.193,150.265,285.412,131.599z"/>
								<path style="fill:#876978;" d="M290.676,131.2c0,0,4.345,31.531,2.421,38.061c0,0-5.53-34.846-23.069-34.254l-7.254,0.607
									c0,0-2.144-4.055,1.594-6.543c3.739-2.488,9.525-6.543,14.144-6.351c0,0,2.186,3.065,11.161,1.786L290.676,131.2z"/>
								<path style="fill:#876978;" d="M202.317,194.879c0,0,8.326,3.774,15.416,3.953c0,0-0.808,3.77-1.795,3.949
									c-0.987,0.18-11.219-2.513-14.72-4.398L202.317,194.879z"/>
							</g>
						</g>
					</g>
				</g>
			</g>
			<g>
				<g>
					<path style="fill:#F19C7C;" d="M306.5,111.822c0,0-3.432,12.416-20.813,13.179c-12.24,0.538-16.809-15.916-18.783-32.76
						c-3.073-26.226,5.063-29.122,18.026-29.975C314.288,60.337,306.5,111.822,306.5,111.822z"/>
					<path style="fill:#FDDEC0;" d="M306.454,63.389c-3.471,4.8-6.817-0.697-10.116,4.225c-0.577,17.821,6.275,19.924,6.275,19.924
						l1.354,7.161l2.751-0.295l0.498,10.621c0,0,3.783-7.419,3.808-25.672C311.042,65.742,308.75,63.718,306.454,63.389z"/>
					<path style="fill:#F19C7C;" d="M306.595,101.387l-1.093-16.122c0,0,5.498-2.713,6.993,2.423
						C313.99,92.823,311.492,99.98,306.595,101.387z"/>
					<path style="fill:#FDDEC0;" d="M298.29,68.356c0,0-17.752,13.636-41.428-1.064l9.395,0.556c0,0-8.522-1.677-10-9.834
						c0,0,2.639,4.075,9.533,5.189c0,0-11.622-2.632-7.121-15.498c0,0,0.495,7.952,10.193,9.181c0,0-6.873-1.608-5.017-10.453
						c0,0,3.986,7.436,10.962,6.57s19.807-7.437,26.858,1.779s2.11,12.811,2.11,12.811s-5.065-1.368-4.564-1.512
						c0.502-0.144,8.762-8.062,10.825,1.938C312.097,78.019,298.29,68.356,298.29,68.356z"/>
				</g>
				<g>
					<g>
						<path style="fill:#C6704E;" d="M284.617,105.325c-2.423-0.121-4.801-0.455-7.173-0.82l-0.576-0.089l0.065-0.639
							c0.146-1.439,0.31-2.874,0.51-4.305c0.087-0.717,0.204-1.43,0.313-2.144c0.112-0.714,0.214-1.429,0.349-2.139
							c0.501-2.847,1.082-5.683,1.921-8.482c0.023,2.922-0.213,5.807-0.529,8.681c-0.07,0.72-0.171,1.435-0.264,2.151
							c-0.094,0.716-0.182,1.434-0.299,2.146c-0.209,1.43-0.452,2.854-0.715,4.276l-0.511-0.728
							C280.03,103.838,282.346,104.475,284.617,105.325z"/>
					</g>
					<g>
						<path style="fill:#211B23;" d="M269.817,94.622c0,0-0.081-0.207-0.165-0.589c-0.079-0.381-0.161-0.94-0.115-1.628
							c0.047-0.682,0.229-1.522,0.783-2.303c0.281-0.381,0.662-0.725,1.101-0.981c0.442-0.254,0.937-0.4,1.423-0.479
							c0.129-0.016,0.228-0.036,0.381-0.048l0.323-0.018c0.26,0.002,0.514,0.016,0.752,0.049c0.485,0.064,0.968,0.207,1.383,0.452
							c0.851,0.469,1.376,1.234,1.623,1.889c0.261,0.661,0.31,1.238,0.31,1.632c0.001,0.396-0.05,0.616-0.05,0.616
							s-0.073-0.213-0.224-0.559c-0.154-0.344-0.387-0.825-0.739-1.309c-0.353-0.485-0.844-0.938-1.455-1.198
							c-0.308-0.124-0.645-0.206-1.003-0.244c-0.185-0.018-0.359-0.018-0.53-0.016l-0.323,0.015
							c-0.062,0.001-0.176,0.018-0.262,0.025c-0.734,0.098-1.383,0.388-1.841,0.886c-0.471,0.488-0.76,1.14-0.95,1.723
							c-0.188,0.588-0.283,1.118-0.343,1.491C269.835,94.401,269.817,94.622,269.817,94.622z"/>
					</g>
					<g>
						<path style="fill:#211B23;" d="M285.681,92.05c0,0-0.078-0.208-0.158-0.591c-0.074-0.382-0.15-0.941-0.096-1.63
							c0.055-0.681,0.247-1.519,0.81-2.294c0.286-0.378,0.671-0.717,1.112-0.968c0.445-0.249,0.942-0.389,1.428-0.462
							c0.129-0.015,0.229-0.034,0.382-0.043l0.323-0.015c0.26,0.005,0.514,0.022,0.751,0.057c0.484,0.069,0.966,0.219,1.378,0.468
							c0.845,0.479,1.361,1.25,1.601,1.908c0.253,0.665,0.295,1.242,0.292,1.635c-0.004,0.396-0.057,0.615-0.057,0.615
							s-0.071-0.214-0.218-0.562c-0.15-0.345-0.377-0.829-0.724-1.317c-0.347-0.489-0.833-0.948-1.441-1.214
							c-0.306-0.128-0.642-0.213-1-0.256c-0.185-0.02-0.359-0.022-0.53-0.023l-0.323,0.012c-0.062,0-0.177,0.016-0.263,0.022
							c-0.736,0.089-1.387,0.371-1.851,0.864c-0.477,0.483-0.773,1.131-0.97,1.712c-0.195,0.586-0.296,1.114-0.36,1.487
							C285.701,91.828,285.681,92.05,285.681,92.05z"/>
					</g>
					<g>
						<path style="fill:#352C38;" d="M280.971,81.461c0,0,0.061-0.245,0.268-0.618c0.206-0.367,0.556-0.865,1.076-1.356
							c0.522-0.48,1.209-0.974,2.025-1.323c0.402-0.196,0.839-0.33,1.288-0.456c0.448-0.13,0.917-0.181,1.383-0.259
							c0.469-0.017,0.939-0.055,1.398-0.025c0.457,0.036,0.908,0.088,1.334,0.171c0.424,0.101,0.827,0.22,1.203,0.342
							c0.373,0.136,0.711,0.31,1.02,0.465c0.62,0.306,1.076,0.7,1.39,0.966c0.313,0.271,0.472,0.46,0.472,0.46
							s-0.247,0.078-0.646,0.156c-0.402,0.092-0.946,0.135-1.579,0.247c-0.314,0.046-0.645,0.067-0.99,0.105
							c-0.345,0.047-0.702,0.087-1.064,0.105c-0.363,0.036-0.731,0.092-1.103,0.103c-0.37,0.042-0.742,0.08-1.115,0.105
							c-0.743,0.083-1.486,0.165-2.183,0.243c-0.71,0.073-1.381,0.177-1.993,0.251c-0.638,0.089-1.17,0.164-1.542,0.216
							C281.222,81.422,280.971,81.461,280.971,81.461z"/>
					</g>
					<g>
						<path style="fill:#352C38;" d="M265.928,84.275c0,0,0.043-0.224,0.215-0.566c0.171-0.338,0.471-0.798,0.93-1.251
							c0.462-0.442,1.078-0.9,1.816-1.213c0.732-0.34,1.575-0.53,2.421-0.614c0.423-0.003,0.849-0.034,1.26,0.013
							c0.41,0.047,0.815,0.101,1.193,0.198c0.377,0.105,0.734,0.227,1.066,0.351c0.327,0.144,0.623,0.309,0.892,0.463
							c0.541,0.301,0.928,0.682,1.196,0.934c0.266,0.259,0.399,0.438,0.399,0.438s-0.225,0.064-0.585,0.123
							c-0.364,0.074-0.85,0.092-1.417,0.178c-0.281,0.032-0.577,0.046-0.883,0.065c-0.307,0.034-0.624,0.061-0.944,0.068
							c-0.321,0.016-0.646,0.064-0.973,0.063c-0.323,0.022-0.651,0.045-0.979,0.067c-0.324,0.026-0.649,0.053-0.968,0.079
							c-0.315,0.046-0.638,0.049-0.943,0.096c-0.623,0.053-1.211,0.144-1.753,0.208c-0.542,0.066-1.014,0.147-1.37,0.2
							C266.137,84.239,265.928,84.275,265.928,84.275z"/>
					</g>
					<g>
						<path style="fill:#B74E4E;" d="M275.618,109.627l21.951-4.474c0,0,1.824,9.426-9.529,11.527
							C277.806,118.573,275.618,109.627,275.618,109.627z"/>
						<path style="fill:#591D1D;" d="M284.839,115.203c1.028-4.317,7.221-6.807,11.248-5.975c0.405,0.084,0.787,0.222,1.145,0.393
							c0.735-2.408,0.337-4.468,0.337-4.468l-21.951,4.474c0,0,1.706,6.956,9.131,7.298
							C284.676,116.369,284.7,115.785,284.839,115.203z"/>
					</g>
				</g>
			</g>
			<g>
				<g>
					<path style="fill:none;stroke:#352C38;stroke-width:0.9158;stroke-miterlimit:10;" d="M309.593,96.098
						c0,0,12.043,10.049,5.81,23.707c-6.233,13.658-17.501,19.986-12.728,37.5c4.773,17.515-0.699,32.337-20.274,32.17
						c0,0,8.571-14.25,5.344-23.405c-6.079-17.245-31.591-18.631-16.466-55.385"/>
					<path style="fill:#352C38;" d="M308.851,98.141c0,0,1.293-1.856-0.835-3.565c0,0,1.264-1.163,2.773,0.115
						C312.298,95.97,310.303,98.028,308.851,98.141z"/>
					<polygon style="fill:#352C38;" points="281.971,188.163 282.819,191.111 275.617,193.077 274.418,190.761 					"/>
					<path style="fill:none;stroke:#352C38;stroke-width:0.9701;stroke-miterlimit:10;" d="M277.286,191.852
						c-3.01,0.585-6.026,1.777-8.533,3.547c-5.172,3.652-5.701,8.39-4.882,14.249c1.176,8.408-3.566,16.734-12.669,17
						c-8.296,0.242-16.299-4.938-22.595-9.775"/>
				</g>
				<path style="fill:#F19C7C;" d="M270.285,109.503c0.725,2.321,1.565,4.476,2.54,6.397
					C273.62,113.446,272.586,110.703,270.285,109.503z"/>
			</g>
		</g>
	</g>
	<g>
		<ellipse style="opacity:0.1;fill:#211B23;" cx="124.974" cy="448.88" rx="70.657" ry="9.317"/>
		<g>
			<g>
				<g>
					<g>
						<path style="fill:#765E69;" d="M123.232,102.811c-5.299-8.132-0.106-27.921-23.672-29.143
							C77.646,72.53,73.781,87.731,73.781,87.731s-5.832,13.716-6.977,22.187c-0.787,5.825-0.687,14.424,4.579,20.834
							c1.655,0.396,3.655,0.955,5.037,1.259c-1.054-3.28-2.518-8.929-2.289-12.249c0,0,0.643,7.699,3.27,12.357
							c2.211,0.465,4.118,0.808,5.9,1.059c-0.513-2.462-0.772-4.903-0.241-6.318c0,0,0.255,3.026,1.09,6.431
							c5.478,0.692,10.001,0.498,19.057,0.208c3.679-0.118,6.731-0.118,9.552-0.325c0.314-1.634,0.752-4.323,0.522-5.628
							c0,0,0.576,3.141,0.257,5.56c2.173-0.193,4.233-0.533,6.356-1.167c0.773-1.642,1.684-4.091,2.052-7.025
							c0.151-1.692,0.155-2.983,0.151-3.401c-0.002-0.05,0-0.098-0.002-0.149c0,0,0.001,0.055,0.002,0.149
							c0.047,1.189-0.017,2.326-0.151,3.401c-0.176,1.979-0.554,4.501-1.357,6.807c1.946-0.638,3.964-1.527,6.2-2.801
							C130.452,120.221,128.162,110.377,123.232,102.811z"/>
						<g>
							<path style="fill:#765E69;" d="M129.077,128.088c0,0,0.071-0.255,0.205-0.734c0.067-0.239,0.15-0.535,0.247-0.882
								c0.073-0.352,0.157-0.756,0.251-1.208c0.108-0.448,0.17-0.956,0.238-1.508c0.087-0.549,0.126-1.149,0.154-1.791
								c0.077-1.28,0.011-2.729-0.151-4.293c-0.177-1.565-0.54-3.237-1.054-4.963c-0.514-1.728-1.262-3.482-2.131-5.241
								c-0.884-1.765-1.945-3.466-3.181-5.168c-1.244-1.767-1.95-3.869-2.554-5.902c-0.585-2.056-1.056-4.12-1.622-6.115
								c-0.571-1.991-1.215-3.924-2.072-5.681c-0.863-1.75-1.898-3.34-3.122-4.639c-1.219-1.303-2.612-2.3-4-3.021
								c-1.396-0.701-2.743-1.243-3.988-1.554c-1.235-0.343-2.342-0.549-3.258-0.667c-0.914-0.148-1.641-0.194-2.135-0.241
								c-0.495-0.045-0.759-0.068-0.759-0.068s0.265,0.007,0.762,0.019c0.497,0.019,1.229,0.004,2.154,0.114
								c0.927,0.075,2.051,0.227,3.32,0.514c1.278,0.252,2.682,0.735,4.139,1.426c1.452,0.7,2.933,1.692,4.245,3.014
								c1.317,1.316,2.46,2.943,3.357,4.754c1.818,3.63,2.7,7.858,3.859,11.893c0.58,2.02,1.23,4.011,2.385,5.683
								c1.201,1.686,2.305,3.488,3.181,5.288c1.797,3.605,2.696,7.313,2.986,10.504c0.129,1.6,0.122,3.076-0.022,4.37
								c-0.06,0.648-0.129,1.252-0.244,1.804c-0.096,0.554-0.183,1.062-0.314,1.511c-0.209,0.911-0.449,1.598-0.623,2.064
								C129.165,127.838,129.077,128.088,129.077,128.088z"/>
						</g>
						<g>
							<path style="fill:#765E69;" d="M98.476,74.393c-1.246,0.032-2.494,0.05-3.739,0.087l-1.851,0.207
								c-0.614,0.081-1.235,0.102-1.837,0.262l-1.815,0.391c-0.612,0.1-1.188,0.337-1.779,0.512c-0.58,0.208-1.192,0.33-1.744,0.61
								l-1.689,0.747c-0.546,0.281-1.068,0.608-1.603,0.909c-0.548,0.281-1.018,0.683-1.52,1.033
								c-0.511,0.341-0.97,0.746-1.421,1.16l-0.682,0.613l-0.631,0.665c-0.436,0.429-0.818,0.907-1.194,1.388
								c-0.4,0.463-0.708,0.994-1.06,1.491c-0.308,0.525-0.634,1.043-0.89,1.594c-0.28,0.535-0.51,1.114-0.694,1.654l-0.014,0.04
								l-0.009,0.021c-0.779,1.705-1.525,3.435-2.247,5.171c-0.716,1.739-1.424,3.48-2.093,5.236
								c-0.354,0.871-0.65,1.762-0.967,2.646c-0.306,0.887-0.649,1.764-0.902,2.666l-0.818,2.69l-0.631,2.727
								c-0.229,0.89-0.341,1.852-0.482,2.759c-0.123,0.924-0.213,1.856-0.269,2.788c-0.106,1.865-0.068,3.74,0.157,5.595
								c0.233,1.852,0.62,3.692,1.257,5.455c0.315,0.883,0.698,1.74,1.126,2.576c0.234,0.406,0.446,0.828,0.689,1.23l0.775,1.182
								l-0.845-1.136c-0.267-0.39-0.509-0.796-0.76-1.198c-0.468-0.822-0.893-1.672-1.251-2.551c-0.717-1.757-1.218-3.607-1.49-5.49
								c-0.28-1.882-0.37-3.79-0.313-5.692c0.032-0.951,0.097-1.9,0.198-2.847c0.119-0.958,0.203-1.879,0.438-2.818l0.62-2.789
								l0.803-2.729c0.25-0.917,0.586-1.801,0.887-2.699c0.312-0.894,0.603-1.796,0.951-2.675l1.008-2.652l1.086-2.62
								c0.742-1.74,1.504-3.466,2.308-5.184l-0.023,0.06c0.221-0.637,0.463-1.216,0.763-1.785c0.275-0.578,0.619-1.115,0.947-1.661
								c0.371-0.517,0.699-1.066,1.118-1.546c0.396-0.498,0.798-0.991,1.255-1.434l0.663-0.685l0.725-0.618
								c0.48-0.417,0.967-0.822,1.504-1.162c0.529-0.348,1.026-0.747,1.598-1.024c0.559-0.296,1.105-0.617,1.674-0.89l1.751-0.72
								c0.572-0.271,1.2-0.381,1.798-0.576c0.608-0.16,1.199-0.392,1.826-0.467l1.857-0.316c0.613-0.134,1.248-0.13,1.872-0.184
								l1.874-0.126C95.984,74.29,97.23,74.354,98.476,74.393z"/>
						</g>
						<g>
							<path style="fill:#765E69;" d="M100.505,75.714c0,0-0.254-0.017-0.731-0.049c-0.476-0.044-1.176-0.073-2.064-0.093
								c-0.887-0.018-1.968-0.009-3.199,0.086c-1.231,0.091-2.613,0.27-4.092,0.583c-2.954,0.609-6.319,1.908-9.261,4.236
								c-1.464,1.165-2.789,2.594-3.905,4.208c-0.567,0.826-1.139,1.659-1.713,2.495c-0.281,0.421-0.588,0.831-0.849,1.262
								l-0.759,1.307c-0.515,0.866-1.031,1.732-1.544,2.595c-0.484,0.88-0.903,1.795-1.353,2.682
								c-0.944,1.758-1.631,3.595-2.337,5.356c-0.172,0.442-0.362,0.873-0.515,1.313c-0.14,0.444-0.278,0.884-0.415,1.319
								c-0.279,0.87-0.552,1.721-0.818,2.549c-0.498,1.667-0.79,3.291-1.156,4.767c-0.304,1.489-0.441,2.879-0.649,4.099
								c-0.228,1.221-0.237,2.302-0.3,3.189c-0.118,1.778-0.186,2.795-0.186,2.795s0.003-1.019,0.007-2.802
								c0.019-0.892-0.027-1.982,0.139-3.217c0.143-1.235,0.21-2.647,0.481-4.156c0.322-1.498,0.567-3.15,1.018-4.85
								c0.243-0.846,0.492-1.715,0.747-2.604c0.13-0.444,0.261-0.892,0.394-1.345c0.151-0.447,0.338-0.885,0.508-1.335
								c0.697-1.79,1.375-3.66,2.312-5.451c0.447-0.904,0.862-1.834,1.345-2.734c0.515-0.885,1.033-1.774,1.55-2.663l0.789-1.325
								c0.27-0.435,0.578-0.838,0.864-1.257c0.582-0.83,1.163-1.657,1.738-2.478c1.18-1.671,2.579-3.148,4.116-4.345
								c1.527-1.216,3.217-2.088,4.86-2.752c1.65-0.655,3.271-1.111,4.792-1.364c1.516-0.284,2.927-0.391,4.174-0.418
								c1.248-0.033,2.333,0.012,3.225,0.076c0.893,0.059,1.587,0.149,2.06,0.22C100.253,75.68,100.505,75.714,100.505,75.714z"/>
						</g>
					</g>
					<ellipse style="fill:#251F28;" cx="116.371" cy="107.171" rx="8.586" ry="10.303"/>
				</g>
				<g>
					<g>
						<g>
							<path style="fill:#FFAC9D;" d="M87.159,111.95l1.897,22.434l-13.763,0.547c0,0,27.669,36.097,29.059,35.888
								c11.71-1.761,19.232-35.258,19.232-35.258l-19.456-0.236l-2.155-20.113L87.159,111.95z"/>
							<path style="opacity:0.15;fill:#352C38;" d="M90.168,130.928c-0.478-0.134-0.958-0.271-1.439-0.412l-1.57-18.566
								l14.813,3.263l2.024,18.882C99.277,133.746,94.428,132.124,90.168,130.928z"/>
						</g>
						<g>
							<path style="fill:#FFAC9D;" d="M77.067,100.254c0,0-1.82-14.522,14.317-19.518c16.136-4.996,25.087,8.796,27.207,20.023
								c2.12,11.227,0.743,24.27-11.849,27.909C91.431,133.092,80.768,119.181,77.067,100.254z"/>
							<path style="fill:#FFAC9D;" d="M78.433,103.276c0,0-6.091-0.77-4.562,5.25c2.447,9.637,8.853,5.784,8.853,5.784
								S79.594,111.24,78.433,103.276z"/>
						</g>
					</g>
					<path style="fill:#765E69;" d="M102.291,79.01c0,0,1.19,11.251-4.579,17.171c-5.769,5.92-14.195,7.784-14.195,7.784
						s1.261,10.75-0.417,8.938c0,0-4.532-8.113-6.651-11.439s-3.037-21.037,9.8-23.79C99.088,74.922,102.291,79.01,102.291,79.01z"
						/>
				</g>
				<g>
					<g>
						<path style="fill:#352C38;" d="M105.633,97.008c0,0,0.044-0.199,0.197-0.519c0.154-0.314,0.406-0.764,0.826-1.208
							c0.198-0.237,0.45-0.454,0.722-0.686c0.291-0.198,0.59-0.442,0.949-0.602c0.346-0.19,0.726-0.341,1.128-0.452
							c0.393-0.148,0.82-0.166,1.235-0.244c0.419-0.015,0.843-0.027,1.251,0.009c0.404,0.062,0.806,0.115,1.176,0.219
							c0.366,0.118,0.714,0.245,1.038,0.37c0.313,0.151,0.594,0.324,0.851,0.477c0.528,0.279,0.876,0.664,1.136,0.887
							c0.252,0.24,0.382,0.39,0.382,0.39s-0.207-0.017-0.546-0.068c-0.344-0.037-0.793-0.176-1.346-0.236
							c-0.274-0.037-0.564-0.086-0.864-0.139c-0.306-0.024-0.622-0.054-0.942-0.098c-0.322-0.029-0.652-0.013-0.981-0.044
							c-0.327,0.013-0.659,0.027-0.992,0.04c-0.323,0.059-0.66,0.056-0.974,0.143c-0.158,0.037-0.317,0.067-0.477,0.094
							c-0.155,0.045-0.308,0.089-0.458,0.133c-0.31,0.07-0.588,0.204-0.875,0.293c-0.268,0.124-0.547,0.213-0.784,0.338
							C106.313,96.566,105.633,97.008,105.633,97.008z"/>
					</g>
					<g>
						<path style="fill:#352C38;" d="M108.885,102.912c0,0,0.091,0.188,0.231,0.52c0.066,0.167,0.147,0.37,0.239,0.602
							c0.114,0.216,0.241,0.454,0.361,0.713c0.113,0.262,0.324,0.504,0.475,0.784c0.189,0.252,0.402,0.512,0.635,0.727
							c0.126,0.095,0.241,0.214,0.373,0.297c0.141,0.061,0.274,0.136,0.406,0.209c0.144,0.025,0.281,0.075,0.423,0.099
							c0.143-0.02,0.285,0.008,0.425-0.027c0.284-0.052,0.563-0.178,0.822-0.363c0.118-0.112,0.244-0.211,0.372-0.313
							c0.109-0.129,0.216-0.257,0.322-0.383c0.196-0.266,0.372-0.556,0.529-0.835c0.119-0.3,0.286-0.569,0.379-0.846
							c0.09-0.277,0.187-0.531,0.274-0.76c0.066-0.236,0.123-0.442,0.17-0.611c0.1-0.343,0.169-0.544,0.169-0.544
							s0.035,0.202,0.076,0.564c0.058,0.364,0.072,0.886,0.001,1.522c-0.022,0.319-0.124,0.657-0.211,1.02
							c-0.12,0.353-0.258,0.737-0.48,1.097c-0.121,0.179-0.243,0.36-0.367,0.544c-0.153,0.169-0.324,0.331-0.498,0.489
							c-0.377,0.295-0.83,0.534-1.345,0.639c-0.253,0.048-0.523,0.016-0.781,0.015c-0.252-0.044-0.497-0.131-0.738-0.204
							c-0.219-0.111-0.422-0.248-0.619-0.379c-0.182-0.146-0.326-0.319-0.483-0.475c-0.295-0.322-0.486-0.692-0.654-1.028
							c-0.132-0.353-0.285-0.671-0.339-0.995c-0.07-0.318-0.117-0.608-0.158-0.86c-0.017-0.249-0.014-0.468-0.017-0.648
							C108.875,103.12,108.885,102.912,108.885,102.912z"/>
					</g>
					<g>
						<path style="fill:#352C38;" d="M91.668,105.31c0,0,0.091,0.188,0.23,0.52c0.066,0.167,0.147,0.37,0.239,0.602
							c0.114,0.216,0.241,0.454,0.361,0.713c0.113,0.262,0.324,0.504,0.475,0.784c0.189,0.252,0.402,0.512,0.635,0.727
							c0.126,0.096,0.241,0.214,0.373,0.297c0.141,0.062,0.274,0.136,0.406,0.209c0.144,0.025,0.281,0.075,0.423,0.099
							c0.143-0.02,0.285,0.008,0.425-0.027c0.284-0.052,0.563-0.178,0.822-0.363c0.118-0.112,0.244-0.211,0.372-0.313
							c0.109-0.13,0.216-0.257,0.321-0.383c0.196-0.266,0.372-0.556,0.529-0.835c0.119-0.3,0.286-0.569,0.379-0.846
							c0.09-0.277,0.187-0.531,0.274-0.761c0.066-0.236,0.123-0.442,0.17-0.611c0.1-0.343,0.169-0.544,0.169-0.544
							s0.035,0.202,0.076,0.565c0.058,0.364,0.072,0.886,0.001,1.522c-0.022,0.319-0.124,0.657-0.211,1.02
							c-0.12,0.353-0.258,0.736-0.481,1.097c-0.121,0.178-0.243,0.36-0.367,0.544c-0.153,0.169-0.324,0.33-0.498,0.489
							c-0.377,0.295-0.83,0.534-1.345,0.639c-0.253,0.048-0.523,0.016-0.781,0.015c-0.252-0.044-0.497-0.131-0.738-0.204
							c-0.219-0.111-0.422-0.248-0.619-0.379c-0.182-0.146-0.326-0.319-0.483-0.475c-0.294-0.322-0.486-0.692-0.654-1.028
							c-0.132-0.353-0.285-0.671-0.339-0.995c-0.07-0.318-0.117-0.608-0.158-0.86c-0.017-0.249-0.014-0.468-0.017-0.648
							C91.658,105.518,91.668,105.31,91.668,105.31z"/>
					</g>
					<g>
						<path style="fill:#CC8271;" d="M105.669,103.784c0.435,0.46,0.807,0.95,1.158,1.45c0.356,0.498,0.677,1.013,0.983,1.534
							c0.62,1.04,1.147,2.124,1.623,3.234l0.166,0.389l-0.209,0.288c-0.475,0.655-0.966,1.299-1.494,1.918
							c-0.534,0.616-1.087,1.22-1.72,1.772c0.244-0.804,0.569-1.556,0.913-2.295c0.349-0.736,0.736-1.447,1.139-2.148l-0.043,0.677
							c-0.572-1.063-1.091-2.151-1.518-3.285c-0.217-0.565-0.419-1.137-0.587-1.725
							C105.909,105.008,105.758,104.411,105.669,103.784z"/>
					</g>
					<g>
						<path style="fill:#CC8271;" d="M110.367,117.179c0,0-0.171,0.145-0.48,0.377c-0.156,0.114-0.343,0.256-0.565,0.403
							c-0.215,0.159-0.467,0.322-0.786,0.445c-0.308,0.141-0.648,0.294-1.018,0.436c-0.369,0.16-0.762,0.229-1.175,0.331
							c-0.412,0.089-0.838,0.215-1.28,0.233c-0.44,0.043-0.889,0.075-1.337,0.104c-0.447-0.021-0.893-0.042-1.333-0.062
							c-0.441-0.006-0.864-0.108-1.275-0.171c-0.825-0.122-1.57-0.349-2.197-0.562c-0.634-0.187-1.128-0.462-1.479-0.62
							c-0.347-0.172-0.54-0.283-0.54-0.283s0.227-0.007,0.612,0.003c0.388,0,0.923,0.065,1.57,0.081
							c0.322,0.012,0.669,0.027,1.031,0.062c0.362,0.036,0.749,0.012,1.141,0.046c0.788,0.063,1.62,0.017,2.451,0.053
							c0.413-0.018,0.827-0.036,1.234-0.053c0.411,0.003,0.805-0.046,1.191-0.089c0.379-0.06,0.777-0.039,1.112-0.117
							c0.34-0.07,0.672-0.117,0.985-0.162c0.311-0.034,0.606-0.1,0.863-0.176c0.257-0.071,0.487-0.118,0.675-0.161
							C110.145,117.214,110.367,117.179,110.367,117.179z"/>
					</g>
					<g>
						<path style="fill:#352C38;" d="M88.981,98.869c0,0,0.045-0.199,0.197-0.519c0.154-0.314,0.406-0.764,0.826-1.208
							c0.198-0.237,0.45-0.454,0.722-0.686c0.291-0.198,0.59-0.441,0.949-0.602c0.346-0.189,0.726-0.341,1.128-0.452
							c0.393-0.148,0.82-0.166,1.235-0.244c0.419-0.015,0.843-0.027,1.251,0.009c0.404,0.062,0.806,0.115,1.176,0.219
							c0.366,0.118,0.714,0.245,1.038,0.37c0.313,0.151,0.594,0.324,0.851,0.477c0.528,0.279,0.876,0.664,1.136,0.887
							c0.251,0.24,0.382,0.39,0.382,0.39s-0.207-0.017-0.546-0.068c-0.344-0.037-0.793-0.176-1.346-0.235
							c-0.274-0.037-0.564-0.086-0.864-0.139c-0.306-0.024-0.622-0.054-0.942-0.098c-0.322-0.029-0.652-0.013-0.981-0.044
							c-0.327,0.013-0.659,0.027-0.992,0.04c-0.323,0.059-0.66,0.056-0.974,0.143c-0.158,0.037-0.317,0.067-0.477,0.094
							c-0.155,0.045-0.308,0.089-0.458,0.133c-0.31,0.07-0.588,0.204-0.875,0.293c-0.268,0.124-0.547,0.213-0.784,0.338
							C89.66,98.427,88.981,98.869,88.981,98.869z"/>
					</g>
				</g>
			</g>
			<g>
				<g>
					<path style="fill:#FFAC9D;" d="M130.598,368.093c0,0,8.598,67.561,15.698,74.881c0,0,44.219,10.404,8.862-4.886l0.418-71.001
						L130.598,368.093z"/>
					<path style="fill:#765E69;" d="M158.618,439.462c0,0,13.03,5.238,10.484,6.929c-2.546,1.691-24.031-2.907-24.031-2.907
						l-1.178-4.671C143.893,438.814,164.006,444.581,158.618,439.462z"/>
					<path style="opacity:0.2;fill:#352C38;" d="M155.405,396.124l0.171-29.037l-24.979,1.006c0,0,2.132,16.75,5.149,34.473
						C142.259,400.301,148.844,398.241,155.405,396.124z"/>
				</g>
				<g>
					<path style="fill:#FFAC9D;" d="M100.131,365.584c0,0,3.781,68.001-1.875,76.486c0,0-41.603,18.241-9.601-3.2l-13.271-69.751
						L100.131,365.584z"/>
					<path style="opacity:0.2;fill:#352C38;" d="M100.496,405.267c0.284,0.014,0.573,0.032,0.861,0.048
						c-0.113-19.684-1.226-39.732-1.226-39.732l-24.747,3.535l6.311,33.167C87.931,403.595,94.155,404.952,100.496,405.267z"/>
					<path style="fill:#765E69;" d="M85.455,440.79c0,0-12.161,8.001-9.281,9.281c2.88,1.28,23.682-7.681,23.682-7.681l0.32-5.12
						C100.176,437.27,80.974,447.191,85.455,440.79z"/>
				</g>
				<g>
					<path style="fill:#5D8584;" d="M79.774,189.89c0,0-25.682,31.683-27.602,63.365c-1.92,31.682,18.241,144.012,18.241,144.012
						s10.561,5.76,35.523,0l-5.761-129.611l29.762,127.69c0,0,13.441,2.88,35.523-4.8c0,0-16.321-157.453-42.243-199.696
						L79.774,189.89z"/>
					<path style="opacity:0.2;fill:#352C38;" d="M140.976,240.776c-13.071,10.371-26.186,20.706-40.103,29.869l29.066,124.701
						c0,0,13.441,2.88,35.523-4.8C165.461,390.546,156.367,302.833,140.976,240.776z"/>
				</g>
			</g>
			<g>
				<g>
					<path style="fill:#FFAC9D;" d="M165.221,145.486l-3.639,0.103l-34.044-8.503l4.783,5.26l-7.76,11.467
						c0,0,37.489,13.919,45.701,6.795C173.761,157.572,168.839,148.016,165.221,145.486z"/>
					<path style="opacity:0.15;fill:#352C38;" d="M138.444,158.301c2.793-5.349,4.917-10.99,6.458-16.879l-17.364-4.337l4.783,5.26
						l-7.76,11.467C124.561,153.812,130.645,156.07,138.444,158.301z"/>
					<path style="fill:#FFAC9D;" d="M138.954,115.8c0,0-12.499-11.318-1.39,2.15c0,0-13.147-12.067-1.311,1.439
						c0,0-11.116-9.186-0.726,2.008c0,0-9.592,2.755,1.503,2.686l13.458,23.836c4.071-1.759,8.782-1.231,13.098-0.974
						c0.972,0.058,5.702,5.712,6.674,5.742c-4.918-11.126-24.386-33.041-30.399-38.586C130.193,105.183,138.954,115.8,138.954,115.8
						z"/>
				</g>
				<g>
					<path style="fill:#FDDEC0;" d="M79.774,189.89c0,0-7.121-1.6-7.121-9.281c0-7.681-9.601-37.443-7.681-41.923
						c1.92-4.48,15.041-5.12,15.041-5.12s1.581,20.144,21.743,20.464c20.162,0.32,18.26-19.824,18.26-19.824
						s9.281,2.24,11.841,6.721c2.56,4.48,13.121,44.804-8.641,49.924C101.456,195.97,79.774,189.89,79.774,189.89z"/>
					<path style="opacity:0.1;fill:#352C38;" d="M69.929,166.038c1.492,6.237,2.724,11.821,2.724,14.571
						c0,7.681,7.121,9.281,7.121,9.281s21.682,6.08,43.444,0.96c3.941-0.927,6.81-3.02,8.87-5.834
						C116.331,190.483,85.901,179.033,69.929,166.038z"/>
					<path style="fill:#FDDEC0;" d="M54.732,149.566c0,0,8.321,9.281,18.562,11.201l-2.88-25.282
						C70.413,135.485,62.093,137.405,54.732,149.566z"/>
					<path style="fill:#FDDEC0;" d="M141.219,139.486c0,0-5.874,21.282-15.761,23.202l-5.44-28.482
						C120.017,134.205,129.938,135.405,141.219,139.486z"/>
				</g>
			</g>
			<g>
				<g>
					<g>
						<g>
							<g>
								<ellipse style="fill:#251F28;" cx="76.763" cy="107.629" rx="8.586" ry="10.303"/>
								<ellipse style="fill:#352C38;" cx="75.046" cy="107.629" rx="6.868" ry="10.303"/>
							</g>
							<path style="fill:#251F28;" d="M71.154,100.99c-0.028-0.686,0.916-22.208,14.195-27.932s20.376,1.145,20.376,1.145
								s-13.279-2.289-18.545,5.037c-5.266,7.326-9.158,21.521-8.929,25.184C78.481,108.087,71.612,112.208,71.154,100.99z"/>
						</g>
						<path style="fill:none;stroke:#352C38;stroke-width:0.9158;stroke-miterlimit:10;" d="M75.962,115.871
							c0,0-9.616,28.39,18.545,33.655c28.161,5.266,22.437,22.437,22.437,22.437s19.003-8.929,9.158-21.75
							c-9.845-12.821-5.266-38.234-5.266-38.234"/>
						<path style="fill:none;stroke:#352C38;stroke-width:0.9158;stroke-miterlimit:10;" d="M116.944,171.964
							c0,0-3.205,4.808-12.592,4.121c-9.387-0.687-10.074,9.158-4.121,11.447c5.953,2.29,8.471,0.687,6.411,6.868"/>
						<polygon style="fill:#251F28;" points="105.268,192.913 105.954,190.508 108.015,190.966 108.015,193.714 						"/>
					</g>
					<g>
						<path style="fill:#251F28;" d="M105.886,224.36c-0.434,1.705-2.168,2.735-3.873,2.301l-10.033-2.555
							c-1.705-0.434-2.735-2.168-2.301-3.873l6.681-26.24c0.434-1.705,2.168-2.735,3.873-2.301l10.033,2.555
							c1.705,0.434,2.735,2.168,2.301,3.873L105.886,224.36z"/>
						<path style="fill:#765E69;" d="M107.478,224.957c-0.434,1.705-2.168,2.735-3.873,2.301l-10.033-2.555
							c-1.705-0.434-2.735-2.168-2.301-3.873l6.681-26.24c0.434-1.705,2.168-2.735,3.873-2.301l10.033,2.555
							c1.705,0.434,2.735,2.168,2.301,3.873L107.478,224.957z"/>
					</g>
				</g>
				<g>
					<path style="fill:#FFAC9D;" d="M56.812,151.327c0,0-13.281,36.643-5.92,44.644c7.361,8.001,34.533,14.42,43.684,16.001
						c12.961,2.24-0.16-1.92-0.16-1.92s16.641,2.72,0-2.56c0,0,20.482,2.56,0.32-1.92c0,0,17.761,1.12-0.48-2.08
						c0,0,6.561-7.521-2.72-1.44L65.293,188.29l4.64-23.682l-1.6-5.6L56.812,151.327z"/>
					<path style="opacity:0.15;fill:#352C38;" d="M65.442,163.548c1.352,0.755,2.768,1.599,4.221,2.436l0.27-1.377l-1.6-5.6
						l-11.521-7.681c0,0-0.804,2.222-1.906,5.682C58.358,159.288,61.836,161.535,65.442,163.548z"/>
				</g>
			</g>
		</g>
	</g>
</g>
<g id="DESIGNED_BY_FREEPIK">
	<g>
		<g id="XMLID_319_">
			<g id="XMLID_338_">
				<path id="XMLID_346_" style="fill:#1D262D;" d="M385.104,472.47c-0.432,0.443-0.803,0.931-1.108,1.453l-0.465-0.241
					c-0.067-0.298-0.349-0.503-0.659-0.466c-0.331,0.039-0.568,0.339-0.529,0.67s0.339,0.568,0.67,0.529
					c0.065-0.008,0.127-0.026,0.184-0.052l0.451,0.234c-0.251,0.554-0.433,1.139-0.539,1.744l0.746,0.132
					c0.23-1.306,0.85-2.507,1.792-3.472L385.104,472.47z"/>
				<path id="XMLID_345_" style="fill:#1D262D;" d="M390.592,470.168c-0.171,0-0.341,0.006-0.51,0.017l-0.074-0.626
					c0.188-0.149,0.296-0.389,0.266-0.645c-0.046-0.393-0.402-0.674-0.795-0.628s-0.674,0.402-0.628,0.795
					c0.03,0.254,0.189,0.461,0.405,0.564l0.073,0.624c-0.714,0.116-1.403,0.332-2.06,0.646l0.327,0.684
					c0.934-0.447,1.942-0.673,2.995-0.673c0.496,0,0.993,0.053,1.475,0.158l0.161-0.741
					C391.693,470.227,391.142,470.168,390.592,470.168z"/>
				<path id="XMLID_344_" style="fill:#1D262D;" d="M397.194,472.715c0.331-0.04,0.566-0.341,0.525-0.672
					c-0.04-0.331-0.341-0.566-0.672-0.526c-0.309,0.038-0.535,0.304-0.53,0.609l-0.416,0.363c-0.418-0.43-0.89-0.813-1.408-1.139
					l-0.404,0.641c1.134,0.715,2.021,1.726,2.563,2.925l0.691-0.313c-0.251-0.554-0.568-1.072-0.942-1.545l0.402-0.351
					C397.065,472.72,397.129,472.723,397.194,472.715z"/>
				<path id="XMLID_343_" style="fill:#1D262D;" d="M390.044,480.376c-0.386,0.023-0.775,0.035-1.157,0.035
					c-0.88,0-1.733-0.061-2.478-0.179c-0.39-0.062-0.846-0.155-1.27-0.292c1.046,1.861,3.069,3.125,5.388,3.125
					c2.855,0,5.262-1.916,5.95-4.504c-0.682,0.449-1.505,0.825-2.459,1.123C392.839,480.051,391.464,480.291,390.044,480.376z"/>
				<path id="XMLID_339_" style="fill:#1D262D;" d="M390.592,471.684c-3.352,0-6.08,2.666-6.08,5.944
					c0,0.425,0.046,0.849,0.137,1.261c0.674,0.483,2.706,0.89,5.348,0.731c2.879-0.173,5.297-0.957,6.672-2.158
					c-0.005-0.195-0.021-0.39-0.045-0.582C396.244,473.918,393.65,471.684,390.592,471.684z M388.432,478.199
					c-1.02,0-1.85-0.83-1.85-1.85c0-1.02,0.83-1.85,1.85-1.85c1.02,0,1.85,0.83,1.85,1.85
					C390.282,477.369,389.452,478.199,388.432,478.199z M393.17,477.29c-0.75,0-1.36-0.61-1.36-1.36s0.61-1.361,1.36-1.361
					c0.75,0,1.361,0.61,1.361,1.361S393.92,477.29,393.17,477.29z"/>
			</g>
			<path id="XMLID_336_" style="fill:#1D262D;" d="M406.595,473.551c-0.295-0.116-0.806-0.309-1.382-0.237
				c-0.551,0.068-0.844,0.34-0.844,1.007v0.866h2.228v1.717h-2.228v5.455h-1.932v-5.455h-1.34v-1.717h1.34v-0.888
				c0-1.68,0.896-2.783,2.568-2.783c0.642,0,1.157,0.122,1.59,0.308L406.595,473.551z"/>
			<path id="XMLID_334_" style="fill:#1D262D;" d="M411.298,476.883c-0.177-0.03-0.358-0.046-0.526-0.046
				c-0.896,0-1.51,0.548-1.51,1.613v3.908h-1.932v-7.172h1.873v0.785c0.451-0.673,1.14-0.977,2.021-0.977
				c0.414,0,0.848,0.128,1.094,0.337L411.298,476.883z"/>
			<path id="XMLID_331_" style="fill:#1D262D;" d="M418.965,478.761c0,0.222-0.015,0.489-0.037,0.651h-5.085
				c0.207,1.036,0.933,1.488,1.843,1.488c0.622,0,1.295-0.252,1.813-0.688l1.132,1.243c-0.814,0.748-1.85,1.088-3.057,1.088
				c-2.198,0-3.723-1.495-3.723-3.753c0-2.258,1.48-3.797,3.627-3.797C417.544,474.994,418.958,476.526,418.965,478.761z
				 M413.851,478.095h3.175c-0.177-0.918-0.733-1.436-1.562-1.436C414.554,476.659,414.021,477.207,413.851,478.095z"/>
			<path id="XMLID_328_" style="fill:#1D262D;" d="M426.618,478.761c0,0.222-0.015,0.489-0.037,0.651h-5.085
				c0.207,1.036,0.932,1.488,1.843,1.488c0.622,0,1.295-0.252,1.813-0.688l1.132,1.243c-0.814,0.748-1.85,1.088-3.057,1.088
				c-2.198,0-3.723-1.495-3.723-3.753c0-2.258,1.48-3.797,3.627-3.797C425.197,474.994,426.611,476.526,426.618,478.761z
				 M421.504,478.095h3.175c-0.178-0.918-0.733-1.436-1.562-1.436C422.207,476.659,421.674,477.207,421.504,478.095z"/>
			<path id="XMLID_325_" style="fill:#1D262D;" d="M434.964,478.769c0,2.154-1.495,3.775-3.471,3.775
				c-0.962,0-1.643-0.378-2.109-0.933v3.708h-1.924v-10.133h1.887v0.792c0.466-0.585,1.155-0.984,2.139-0.984
				C433.469,474.994,434.964,476.615,434.964,478.769z M429.287,478.769c0,1.132,0.747,1.976,1.843,1.976
				c1.14,0,1.85-0.881,1.85-1.976c0-1.095-0.71-1.976-1.85-1.976C430.035,476.793,429.287,477.636,429.287,478.769z"/>
			<path id="XMLID_322_" style="fill:#1D262D;" d="M438.068,472.84c0,0.696-0.54,1.229-1.236,1.229
				c-0.696,0-1.229-0.533-1.229-1.229c0-0.696,0.533-1.243,1.229-1.243C437.527,471.597,438.068,472.144,438.068,472.84z
				 M437.809,482.358h-1.932v-7.172h1.932V482.358z"/>
			<path id="XMLID_320_" style="fill:#1D262D;" d="M441.032,477.74l2.702-2.554h2.368l-3.479,3.375l3.501,3.797h-2.376l-2.716-2.901
				v2.901H439.1V471.7h1.932V477.74z"/>
		</g>
		<g>
			<path style="fill:#1D262D;" d="M309.412,482.293v-1.055c-0.527,0.718-1.391,1.23-2.387,1.23c-1.846,0-3.149-1.406-3.149-3.706
				c0-2.256,1.289-3.721,3.149-3.721c0.952,0,1.816,0.469,2.387,1.245v-3.765h1.099v9.77H309.412z M309.412,480.375v-3.208
				c-0.395-0.615-1.245-1.143-2.124-1.143c-1.421,0-2.27,1.172-2.27,2.739c0,1.567,0.85,2.724,2.27,2.724
				C308.168,481.488,309.017,480.99,309.412,480.375z"/>
			<path style="fill:#1D262D;" d="M311.932,478.749c0-2.051,1.465-3.706,3.486-3.706c2.139,0,3.398,1.67,3.398,3.794v0.279h-5.727
				c0.088,1.333,1.026,2.446,2.549,2.446c0.805,0,1.626-0.322,2.182-0.893l0.527,0.718c-0.703,0.703-1.655,1.084-2.812,1.084
				C313.44,482.469,311.932,480.961,311.932,478.749z M315.404,475.951c-1.509,0-2.256,1.274-2.315,2.358h4.643
				C317.718,477.254,317.015,475.951,315.404,475.951z"/>
			<path style="fill:#1D262D;" d="M319.607,481.356l0.571-0.791c0.469,0.542,1.362,1.011,2.329,1.011c1.084,0,1.67-0.513,1.67-1.216
				c0-1.714-4.38-0.659-4.38-3.281c0-1.098,0.952-2.036,2.636-2.036c1.201,0,2.051,0.454,2.622,1.026l-0.513,0.762
				c-0.424-0.513-1.201-0.894-2.109-0.894c-0.967,0-1.567,0.483-1.567,1.113c0,1.552,4.38,0.527,4.38,3.281
				c0,1.187-0.952,2.138-2.783,2.138C321.306,482.469,320.325,482.118,319.607,481.356z"/>
			<path style="fill:#1D262D;" d="M326.477,473.475c0-0.41,0.337-0.747,0.732-0.747c0.41,0,0.747,0.337,0.747,0.747
				c0,0.41-0.337,0.732-0.747,0.732C326.814,474.208,326.477,473.886,326.477,473.475z M326.667,482.293v-7.075h1.099v7.075H326.667
				z"/>
			<path style="fill:#1D262D;" d="M329.582,484.11l0.556-0.82c0.586,0.703,1.289,0.967,2.3,0.967c1.172,0,2.27-0.571,2.27-2.124
				v-1.011c-0.513,0.718-1.377,1.26-2.373,1.26c-1.845,0-3.149-1.377-3.149-3.662c0-2.27,1.289-3.677,3.149-3.677
				c0.952,0,1.802,0.469,2.373,1.245v-1.069h1.099v6.87c0,2.344-1.641,3.076-3.369,3.076
				C331.237,485.164,330.417,484.93,329.582,484.11z M334.709,480.257v-3.091c-0.381-0.615-1.23-1.143-2.109-1.143
				c-1.421,0-2.27,1.128-2.27,2.695c0,1.553,0.849,2.695,2.27,2.695C333.478,481.414,334.328,480.873,334.709,480.257z"/>
			<path style="fill:#1D262D;" d="M342.413,482.293v-4.629c0-1.245-0.63-1.641-1.582-1.641c-0.865,0-1.685,0.527-2.095,1.099v5.17
				h-1.099v-7.075h1.099v1.025c0.498-0.586,1.465-1.201,2.519-1.201c1.48,0,2.256,0.747,2.256,2.285v4.966H342.413z"/>
			<path style="fill:#1D262D;" d="M344.932,478.749c0-2.051,1.465-3.706,3.486-3.706c2.138,0,3.398,1.67,3.398,3.794v0.279h-5.727
				c0.088,1.333,1.025,2.446,2.549,2.446c0.806,0,1.626-0.322,2.183-0.893l0.527,0.718c-0.703,0.703-1.655,1.084-2.812,1.084
				C346.441,482.469,344.932,480.961,344.932,478.749z M348.404,475.951c-1.509,0-2.256,1.274-2.314,2.358h4.643
				C350.718,477.254,350.015,475.951,348.404,475.951z"/>
			<path style="fill:#1D262D;" d="M358.35,482.293v-1.055c-0.527,0.718-1.392,1.23-2.388,1.23c-1.845,0-3.149-1.406-3.149-3.706
				c0-2.256,1.289-3.721,3.149-3.721c0.952,0,1.817,0.469,2.388,1.245v-3.765h1.098v9.77H358.35z M358.35,480.375v-3.208
				c-0.396-0.615-1.245-1.143-2.124-1.143c-1.421,0-2.27,1.172-2.27,2.739c0,1.567,0.849,2.724,2.27,2.724
				C357.105,481.488,357.954,480.99,358.35,480.375z"/>
			<path style="fill:#1D262D;" d="M364.692,482.293v-9.77h1.099v3.765c0.572-0.776,1.421-1.245,2.388-1.245
				c1.845,0,3.149,1.465,3.149,3.721c0,2.299-1.304,3.706-3.149,3.706c-0.996,0-1.86-0.513-2.388-1.23v1.055H364.692z
				 M367.9,481.488c1.436,0,2.286-1.157,2.286-2.724c0-1.568-0.85-2.739-2.286-2.739c-0.864,0-1.728,0.527-2.109,1.143v3.208
				C366.171,480.99,367.036,481.488,367.9,481.488z"/>
			<path style="fill:#1D262D;" d="M372.529,484.066c0.161,0.073,0.425,0.117,0.601,0.117c0.483,0,0.806-0.161,1.055-0.747
				l0.469-1.069l-2.959-7.148h1.187l2.358,5.801l2.344-5.801h1.201l-3.545,8.51c-0.425,1.025-1.143,1.421-2.08,1.435
				c-0.234,0-0.601-0.044-0.806-0.103L372.529,484.066z"/>
		</g>
	</g>
</g>
</svg>
